ply
format ascii 1.0
comment VCGLIB generated
element vertex 66
property float x
property float y
property float z
property float nx
property float ny
property float nz
element face 128
property list uchar int vertex_indices
end_header
5.5 9.52628 11 0 1.5708 0 
-5.5 9.52628 5.5 0 0.785398 0 
5.5 9.52628 0 0 1.5708 0 
-11 1.34711e-15 5.5 -0.680175 -0.392699 0 
-8.25 -4.76314 0 -0.680175 -0.392699 0 
-11 1.34711e-15 0 -1.36035 -0.785398 0 
5.5 -9.52628 0 0 0 -0.333473 
11 0 0 0 0 -1.76092 
8.25 -4.76314 0 0 0 -1.0472 
-8.25 4.76314 0 0 0 -1.0472 
-5.5 9.52628 0 0 0 -2.0944 
1.77636e-15 9.52628 0 0 0 -0.713724 
8.25 -4.76314 11 0 0 0.523599 
-8.25 -4.76314 11 0 0 0.333473 
5.5 -9.52628 11 0 0 1.76092 
-8.25 4.76314 11 0 0 0.523599 
1.77636e-15 9.52628 11 0 0 0.713724 
11 0 11 0 0 0.333473 
-33.2779 19.213 11 -0.680175 0.392699 0 
-36.0279 14.4499 5.5 -1.36035 0.785398 0 
-36.0279 14.4499 11 -1.36035 0.785398 0 
-27.6853 9.63324 0 -0.259389 -0.449274 0 
-27.6853 9.63324 11 -0.526009 -0.911075 0 
-5.5 9.52628 11 0.785398 1.36035 0 
-30.5279 23.9761 0 0.785398 1.36035 0 
-30.5279 23.9761 5.5 0.526009 0.911075 0 
-22.1853 19.1595 11 0.526009 0.911075 0 
-22.1853 19.1595 0 0 0 -0.518777 
-13.8426 14.3429 0 0 0 -0.278074 
-19.3426 4.81662 0 0 0 -0.278073 
-36.0279 14.4499 0 0 0 -1.5708 
-33.2779 19.213 0 0 0 -1.05202 
-30.5279 23.9761 11 0 0 1.5708 
-13.8426 14.3429 11 0 0 0.278074 
-11 1.34711e-15 11 0 0 1.5708 
-19.3426 4.81662 11 0 0 0.518778 
36.0279 14.4499 0 1.36035 0.785398 0 
36.0279 14.4499 11 1.36035 0.785398 0 
33.2779 19.213 11 0.680175 0.392699 0 
30.5279 23.9761 11 1.36035 0.785398 0 
30.5279 23.9761 0 1.36035 0.785398 0 
18.0139 16.7512 0 -1.2071 2.09076 0 
5.5 9.52628 5.5 -0.603551 1.04538 0 
30.5279 23.9761 5.5 -0.0878152 0.1521 0 
36.0279 14.4499 5.5 0.181847 -0.314969 0 
11 0 5.5 0.181847 -0.314969 0 
33.2779 19.213 0 0 0 -0.727389 
23.5139 7.22493 0 0 0 -1.2071 
23.5139 7.22493 11 0 0 1.5708 
18.0139 16.7512 11 0 0 0.363695 
5.5 -38.426 11 0 -1.5708 0 
0 -38.426 11 0 -0.785398 0 
0 -38.426 0 0 -0.785398 0 
5.5 -38.426 5.5 1.2071 0 0 
5.5 -9.52628 5.5 1.5708 0 0 
-5.5 -9.52628 5.5 -0.363694 0 0 
-5.5 -23.9761 0 -2.4142 0 0 
-5.5 -38.426 11 -1.5708 0 0 
-5.5 -38.426 5.5 -1.2071 0 0 
-5.5 -38.426 0 0 0 -1.5708 
-5.5 -9.52628 0 0 0 -0.650664 
5.5 -23.9761 0 0 0 -0.363694 
5.5 -38.426 0 0 0 -1.5708 
-5.5 -23.9761 11 0 0 1.5708 
-5.5 -9.52628 11 0 0 0.920132 
5.5 -23.9761 11 0 0 0.650664 
3 16 0 42 
3 16 1 23 
3 1 16 42 
3 42 11 1 
3 11 10 1 
3 2 11 42 
3 13 34 3 
3 13 55 64 
3 4 13 3 
3 13 4 55 
3 4 60 55 
3 5 4 3 
3 12 14 54 
3 12 45 17 
3 8 12 54 
3 12 8 45 
3 8 7 45 
3 6 8 54 
3 9 8 4 
3 60 4 6 
3 8 6 4 
3 11 7 8 
3 8 9 11 
3 9 4 5 
3 11 9 10 
3 11 2 7 
3 15 13 12 
3 64 14 13 
3 12 13 14 
3 16 12 17 
3 12 16 15 
3 15 34 13 
3 16 23 15 
3 16 17 0 
3 25 24 31 
3 25 18 32 
3 18 25 31 
3 31 19 18 
3 19 20 18 
3 30 19 31 
3 19 30 21 
3 20 19 22 
3 21 22 19 
3 21 29 35 
3 21 35 22 
3 3 29 5 
3 34 35 3 
3 29 3 35 
3 1 10 28 
3 23 1 33 
3 28 33 1 
3 33 28 27 
3 33 27 26 
3 25 27 24 
3 32 26 25 
3 27 25 26 
3 27 31 24 
3 31 27 28 
3 28 10 9 
3 9 31 28 
3 21 31 29 
3 5 29 9 
3 29 31 9 
3 30 31 21 
3 26 32 18 
3 18 33 26 
3 33 15 23 
3 15 33 18 
3 22 35 18 
3 34 15 35 
3 35 15 18 
3 20 22 18 
3 44 36 46 
3 44 38 37 
3 38 44 46 
3 46 43 38 
3 43 39 38 
3 40 43 46 
3 43 40 41 
3 43 49 39 
3 42 43 41 
3 42 41 2 
3 43 42 0 
3 43 0 49 
3 45 7 47 
3 45 48 17 
3 44 45 47 
3 45 44 48 
3 44 37 48 
3 36 44 47 
3 46 36 47 
3 7 2 41 
3 7 41 47 
3 41 40 46 
3 46 47 41 
3 38 48 37 
3 17 48 49 
3 17 49 0 
3 49 38 39 
3 38 49 48 
3 58 59 52 
3 58 51 57 
3 53 58 52 
3 58 53 51 
3 53 50 51 
3 62 53 52 
3 53 62 61 
3 53 65 50 
3 54 53 61 
3 54 61 6 
3 53 54 14 
3 53 14 65 
3 55 60 56 
3 55 63 64 
3 58 55 56 
3 55 58 63 
3 58 57 63 
3 59 58 56 
3 52 59 56 
3 60 6 61 
3 60 61 56 
3 61 62 52 
3 52 56 61 
3 51 63 57 
3 64 63 65 
3 64 65 14 
3 65 51 50 
3 51 65 63 
