ply
format ascii 1.0
comment VCGLIB generated
element vertex 360
property float x
property float y
property float z
property float nx
property float ny
property float nz
element face 716
property list uchar int vertex_indices
end_header
24 -9.5 0 0 -1.5708 0 
26 -9.5 1 0 -0.785398 0 
24 -9.5 1 0 -0.785398 0 
52 -9.5 2 0.305879 0 0 
52 3.16667 2 1.5708 0 0 
52 9.5 2 1.5708 0 0 
52 9.5 0 0.305879 0 0 
28.1667 9.5 1 0 1.5708 0 
30.3333 9.5 0.5 0 1.344 0 
30.3333 9.5 1 0 0.229753 0 
45.5 9.5 2 0 1.2723 0 
32.5 9.5 2 0 2.70918 0 
26 9.5 2 0 1.344 0 
28.1667 9.5 1.5 0 0.453598 0 
26 9.5 1 0 0.226799 0 
28.1667 9.5 0.5 0 1.344 0 
30.3333 9.5 1.5 0 1.7976 0 
24 7.125 1 -0.207497 0 0 
24 4.75 1 -1.3633 0 0 
24 4.75 0.5 -1.5708 0 0 
24 -4.75 0.5 -1.3633 0 0 
24 -7.125 1 -1.3633 0 0 
24 -7.125 0.5 -1.5708 0 0 
24 7.125 0.5 -0.414993 0 0 
24 7.125 1.5 -0.12565 0 0 
24 4.75 1.5 -2.83571 0 0 
24 -3.16667 2 -2.45263 0 0 
24 3.16667 0 -2.45263 0 0 
24 -4.75 1 -1.00748 0 0 
24 -4.75 1.5 -1.87668 0 0 
24 -7.125 1.5 -2.80845 0 0 
24.5 -4.75 0 0 0 -1.5708 
25.5 -4.75 0 0 0 -0.207497 
25 -7.125 0 0 0 -0.207497 
25 -4.75 0 0 0 -1.5708 
25.5 7.125 0 0 0 -0.207497 
25 4.75 0 0 0 -1.3633 
25 7.125 0 0 0 -0.207497 
24.5 4.75 0 0 0 -0.207497 
24 -3.16667 0 0 0 -0.180228 
24.5 -7.125 0 0 0 -2.80845 
25 -9.5 0 0 0 -0.207497 
25 9.5 0 0 0 -1.3633 
24 9.5 0 0 0 -1.3633 
25.5 -7.125 0 0 0 -2.80845 
26 3.16667 0 0 0 -2.57828 
24.5 7.125 0 0 0 -1.3633 
26 9.5 0 0 0 -0.207497 
25.5 4.75 0 0 0 -1.87668 
32.5 -9.5 2 0 0 2.17085 
39 9.5 2 0 0 0.939717 
52 -3.16667 2 0 0 1.22575 
-28.1667 -9.5 1.5 0 -0.226798 0 
-30.3333 -9.5 1.5 0 -1.5708 0 
-30.3333 -9.5 1 0 -1.344 0 
-28.1667 -9.5 0.5 0 -1.5708 0 
-52 -9.5 0 0 -0.298499 0 
-45.5 -9.5 2 0 -1.2723 0 
-39 -9.5 2 0 -1.2723 0 
-39 -9.5 0 0 -1.5708 0 
-32.5 -9.5 0 0 -0.298499 0 
-45.5 -9.5 0 0 -1.2723 0 
-30.3333 -9.5 0.5 0 -1.7976 0 
-26 -9.5 1 0 -1.344 0 
-28.1667 -9.5 1 0 -1.5708 0 
-26 -9.5 2 0 -0.111923 0 
-24 -4.75 1.5 0.207497 0 0 
-24 -7.125 1 1.3633 0 0 
-24 -7.125 0.5 0.207497 0 0 
-24 -4.75 0.5 1.5708 0 0 
-24 7.125 1 1.3633 0 0 
-24 -3.16667 0 0.257437 0 0 
-24 -9.5 1 1.3633 0 0 
-24 -7.125 1.5 0.414993 0 0 
-24 -3.16667 2 0.257437 0 0 
-24 3.16667 2 2.45263 0 0 
-24 4.75 1 0.563316 0 0 
-24 -4.75 1 0.563316 0 0 
-24 7.125 0.5 0.12565 0 0 
-24 4.75 0.5 2.83571 0 0 
-24 3.16667 0 0.12565 0 0 
-24 4.75 1.5 1.87668 0 0 
-24 9.5 2 1.3633 0 0 
-24 7.125 1.5 2.80845 0 0 
-24 9.5 1 0.207497 0 0 
-26 9.5 1 0 0.785398 0 
-26 9.5 2 0 1.5708 0 
-25 9.5 2 0 0.785398 0 
-52 3.16667 0 -1.5708 0 0 
-52 3.16667 2 -0.305879 0 0 
-52 -3.16667 0 -1.26492 0 0 
-52 -3.16667 2 -1.5708 0 0 
-52 -9.5 2 -1.5708 0 0 
-25.5 -7.125 0 0 0 -1.3633 
-25.5 -4.75 0 0 0 -1.5708 
-24.5 -7.125 0 0 0 -1.5708 
-25 -7.125 0 0 0 -1.3633 
-25 -4.75 0 0 0 -1.5708 
-25 7.125 0 0 0 -0.207497 
-26 -3.16667 0 0 0 -0.180228 
-26 -9.5 0 0 0 -0.207497 
-25.5 4.75 0 0 0 -0.104877 
-25 4.75 0 0 0 -1.00748 
-25 9.5 0 0 0 -1.3633 
-25.5 7.125 0 0 0 -0.414993 
-24.5 -4.75 0 0 0 -2.83571 
-24.5 4.75 0 0 0 -2.83571 
-24 9.5 0 0 0 -0.207497 
-24.5 7.125 0 0 0 -2.80845 
-52 9.5 2 0 0 1.5708 
-45.5 9.5 2 0 0 2.36918 
-32.5 -9.5 2 0 0 2.17085 
-32.5 9.5 2 0 0 0.970746 
25 -9.5 28 0 -0.785398 0 
26 -9.5 28 0 -1.5708 0 
26 -9.5 27 0 -0.785398 0 
26 -4.75 27.5 0.207497 0 0 
26 -4.75 26.5 1.5708 0 0 
26 4.75 27 0.207497 0 0 
26 7.125 27 1.5708 0 0 
26 -7.125 27 1.5708 0 0 
26 -3.16667 26 0.305879 0 0 
26 -9.5 26 0.10262 0 0 
26 -7.125 26.5 2.9341 0 0 
26 -7.125 27.5 0.414993 0 0 
26 -4.75 27 0.12565 0 0 
26 4.75 26.5 2.83571 0 0 
26 7.125 26.5 2.80845 0 0 
26 4.75 27.5 1.87668 0 0 
26 7.125 27.5 0.414993 0 0 
26 9.5 27 0 0.785398 0 
26 9.5 28 0 1.5708 0 
25 9.5 28 0 1.5708 0 
24.5 -4.75 28 0 0 1.5708 
25.5 -4.75 28 0 0 1.3633 
25 -4.75 28 0 0 1.5708 
25.5 -7.125 28 0 0 1.5708 
25 7.125 28 0 0 1.5708 
24.5 -7.125 28 0 0 2.80845 
25 -7.125 28 0 0 1.5708 
24 -3.16667 28 0 0 2.57828 
25 4.75 28 0 0 0.563316 
24.5 4.75 28 0 0 2.73084 
24.5 7.125 28 0 0 2.9341 
26 -3.16667 28 0 0 2.45263 
26 3.16667 28 0 0 0.180228 
25.5 7.125 28 0 0 0.414993 
25.5 4.75 28 0 0 1.87668 
-26 -9.5 26 0 -1.5708 0 
-24 9.5 28 0 1.5708 0 
-26 9.5 27 0 0.785398 0 
-25 9.5 28 0 0.785398 0 
-26 7.125 27.5 -1.5708 0 0 
-26 7.125 27 -0.207497 0 0 
-26 7.125 26.5 -1.3633 0 0 
-26 4.75 26.5 -1.5708 0 0 
-26 -4.75 26.5 -1.3633 0 0 
-26 -7.125 26.5 -1.5708 0 0 
-26 9.5 26 -0.104877 0 0 
-26 9.5 28 -1.3633 0 0 
-26 4.75 27.5 -1.87668 0 0 
-26 4.75 27 -1.00748 0 0 
-26 3.16667 28 -2.57828 0 0 
-26 -4.75 27 -0.437666 0 0 
-26 -3.16667 26 -0.180228 0 0 
-26 -7.125 27 -0.398522 0 0 
-26 -4.75 27.5 -1.87668 0 0 
-26 -9.5 28 -1.3633 0 0 
-26 -9.5 27 -0.207497 0 0 
-26 -7.125 27.5 -1.3633 0 0 
-24.5 -4.75 28 0 0 1.3633 
-25 -7.125 28 0 0 1.3633 
-24.5 -7.125 28 0 0 1.5708 
-25 4.75 28 0 0 1.3633 
-24.5 4.75 28 0 0 1.5708 
-25 7.125 28 0 0 0.207497 
-26 -3.16667 28 0 0 0.12565 
-25.5 -7.125 28 0 0 0.414993 
-25 -9.5 28 0 0 0.207497 
-25.5 7.125 28 0 0 2.9341 
-25.5 4.75 28 0 0 1.87668 
-25.5 -4.75 28 0 0 1.87668 
-25 -4.75 28 0 0 1.00748 
-24.5 7.125 28 0 0 1.3633 
-24.5 -9.5 5 0 -1.5708 0 
-24.5 -9.5 23 0 -1.40565 0 
-26 -9.5 10 0 -0.0996686 0 
-25.5 -9.5 8 0 -2.89661 0 
-25 -9.5 5 0 -1.5708 0 
-25.5 -9.5 5 0 -1.40565 0 
-25 -9.5 8 0 -0.0996686 0 
-26 -9.5 18 0 -0.244978 0 
-25 -9.5 20 0 -1.10715 0 
-25.5 -9.5 20 0 -1.81578 0 
-25.5 -9.5 23 0 -0.330298 0 
-24.5 -9.5 8 0 -2.89661 0 
-24 -9.5 10 0 -0.218669 0 
-25 -9.5 23 0 -1.5708 0 
-24.5 -9.5 20 0 -2.89661 0 
-25 -9.5 26 0 -1.40565 0 
-24 -9.5 18 2.27069 0 0 
-24 -9.5 26 1.5708 0 0 
-24.5 9.5 8 0 1.5708 0 
-25 9.5 8 0 0.165149 0 
-25.5 9.5 8 0 1.40565 0 
-25.5 9.5 23 0 1.40565 0 
-25 9.5 20 0 1.40565 0 
-25.5 9.5 20 0 1.5708 0 
-25 9.5 23 0 0.165149 0 
-24.5 9.5 5 0 2.87678 0 
-25 9.5 5 0 1.5708 0 
-24.5 9.5 20 0 1.81578 0 
-24 9.5 18 0 0.218669 0 
-24 9.5 10 0 0.218669 0 
-24.5 9.5 23 0 0.330298 0 
-26 9.5 10 0 0.218669 0 
-25.5 9.5 5 0 0.330298 0 
-26 9.5 18 0 0.0996686 0 
-25 9.5 26 0 1.40565 0 
-18 -9.5 27.5 0 -0.165149 0 
-21 -9.5 27.5 0 -1.5708 0 
-21 -9.5 27 0 -1.5708 0 
18 -9.5 27.5 0 -1.5708 0 
21 -9.5 27 0 -0.165149 0 
18 -9.5 26.5 0 -1.40565 0 
-21 -9.5 26.5 0 -1.40565 0 
-18 -9.5 26.5 0 -2.81347 0 
-16 -9.5 26 0 -2.67795 0 
-8 -9.5 28 0 -1.32582 0 
0 -9.5 28 0 -1.5708 0 
-24 -9.5 27 0 -0.165149 0 
-24 -9.5 28 0 -0.165149 0 
-18 -9.5 27 0 -0.363979 0 
21 -9.5 26.5 0 -0.330298 0 
8 -9.5 28 0 -1.47113 0 
18 -9.5 27 0 -0.199337 0 
16 -9.5 28 0 -0.244978 0 
21 -9.5 27.5 0 -2.97644 0 
24 -9.5 28 0 -1.40565 0 
24 -9.5 27 0 -0.165149 0 
24.5 -9.5 8 0 -1.5708 0 
25 -9.5 5 0 -1.5708 0 
25.5 -9.5 8 0 -1.40565 0 
25 -9.5 20 0 -1.40565 0 
25.5 -9.5 20 0 -1.5708 0 
25 -9.5 23 0 -1.40565 0 
24.5 -9.5 20 0 -0.165149 0 
24 -9.5 2 0 -0.165149 0 
25 -9.5 2 0 -1.40565 0 
24.5 -9.5 5 0 -0.330298 0 
25 -9.5 8 0 -0.0996686 0 
24 -9.5 26 0 -0.0831408 0 
24.5 -9.5 23 0 -2.97644 0 
26 -9.5 10 0 -0.14531 0 
25.5 -9.5 5 0 -0.0996686 0 
26 -9.5 2 0 -0.165149 0 
25.5 -9.5 23 0 -1.40565 0 
25 -9.5 26 0 -1.40565 0 
26 -9.5 18 0 -0.218669 0 
25 9.5 23 0 1.40565 0 
25.5 9.5 23 0 1.5708 0 
25.5 9.5 20 0 0.165149 0 
25 9.5 20 0 1.5708 0 
26 9.5 10 0 0.0996686 0 
25.5 9.5 5 0 2.87678 0 
25 9.5 5 0 1.5708 0 
26 9.5 26 0 0.0831408 0 
26 9.5 18 0 0.218669 0 
25.5 9.5 8 0 1.81578 0 
25 9.5 8 0 1.10715 0 
24.5 9.5 8 0 2.89661 0 
24 9.5 2 0 0.165149 0 
24 9.5 10 0 0.0996686 0 
24.5 9.5 5 0 0.330298 0 
24.5 9.5 20 0 2.89661 0 
24.5 9.5 23 0 2.87678 0 
25 9.5 26 0 1.40565 0 
24 9.5 18 -2.27069 0 0 
24 -9.5 10 -0.669639 0 0 
24 -9.5 18 -0.870903 0 0 
24 3.16667 2 -1.43961 0 0 
24 0 26 -0.262373 0 0 
18 9.5 27.5 0 0.165149 0 
24 9.5 27 0 1.40565 0 
21 9.5 26.5 0 1.40565 0 
21 9.5 27 0 1.5708 0 
18 9.5 26.5 0 2.81347 0 
18 9.5 27 0 0.363979 0 
8 9.5 26 0 1.5708 0 
21 9.5 27.5 0 0.330298 0 
24 9.5 28 0 0.165149 0 
8 9.5 28 0 0.0996686 0 
-16 9.5 26 0 2.67795 0 
-18 9.5 26.5 0 1.81578 0 
-21 9.5 27 0 1.5708 0 
-21 9.5 26.5 0 2.87678 0 
-18 9.5 27 0 0.199337 0 
-8 9.5 26 0 0.244978 0 
-18 9.5 27.5 0 1.81578 0 
-21 9.5 27.5 0 2.97644 0 
-24 9.5 27 0 1.40565 0 
-24 0 26 0 0 -0.158902 
-8 -9.5 26 0 0 -2.60578 
-24 9.5 26 0 0 -1.5708 
0 9.5 26 0 0 -0.376909 
0 -9.5 26 0 0 -2.38777 
8 -9.5 26 0 0 -0.535811 
16 -9.5 26 0 0 -0.870903 
16 9.5 26 0 0 -0.870903 
24 9.5 26 0 0 -1.5708 
-16 -9.5 28 0 0 0.669639 
-24 -3.16667 28 0 0 0.29273 
-16 9.5 28 0 0 0.669639 
-8 9.5 28 0 0 2.76468 
-24 3.16667 28 0 0 0.118902 
0 9.5 28 0 0 1.31279 
24 3.16667 28 0 0 0.118902 
16 9.5 28 0 0 2.47195 
-25 -9.5 2 0 -1.5708 0 
-24 -9.5 2 0 -1.5708 0 
-24 -9.5 0 0 -1.5708 0 
-25 -9.5 0 0 -0.785398 0 
-28.1667 9.5 1 0 1.5708 0 
-30.3333 9.5 0.5 0 1.5708 0 
-28.1667 9.5 0.5 0 0.453598 0 
-28.1667 9.5 1.5 0 2.91479 0 
-52 9.5 0 0 1.2723 0 
-39 9.5 2 0 0.298499 0 
-45.5 9.5 0 0 0.298499 0 
-39 9.5 0 0 1.5708 0 
-30.3333 9.5 1.5 0 1.7976 0 
-30.3333 9.5 1 0 1.13839 0 
-26 3.16667 0 0 0 -0.798384 
-32.5 9.5 0 0 0 -0.772412 
-26 9.5 0 0 0 -1.5708 
-26 0 2 -0.404625 0 0 
-26 3.16667 26 -1.43961 0 0 
28.1667 -9.5 0.5 0 -0.453598 0 
28.1667 -9.5 1 0 -1.5708 0 
28.1667 -9.5 1.5 0 -1.344 0 
30.3333 -9.5 1.5 0 -0.114877 0 
30.3333 -9.5 0.5 0 -1.7976 0 
45.5 -9.5 2 0 -1.5708 0 
39 -9.5 2 0 -1.2723 0 
30.3333 -9.5 1 0 -1.13839 0 
25 9.5 2 0 0.785398 0 
24 9.5 1 0 0.785398 0 
26 -3.16667 0 0 0 -0.798384 
32.5 -9.5 0 0 0 -0.772412 
26 -9.5 0 0 0 -1.5708 
39 -9.5 0 0 0 -0.453339 
32.5 9.5 0 0 0 -0.772412 
39 9.5 0 0 0 -1.11746 
52 -9.5 0 0 0 -1.5708 
45.5 9.5 0 0 0 -0.772412 
52 3.16667 0 0 0 -0.798384 
45.5 -9.5 0 0 0 -2.36918 
52 -3.16667 0 0 0 -0.319073 
26 0 2 0.404625 0 0 
26 3.16667 26 0.901157 0 0 
3 2 0 41 
3 2 248 247 
3 1 2 41 
3 2 1 248 
3 1 255 248 
3 349 1 41 
3 357 51 3 
3 357 3 353 
3 51 357 355 
3 51 355 4 
3 6 5 4 
3 6 4 355 
3 13 16 9 
3 13 9 7 
3 7 9 8 
3 7 8 15 
3 354 10 5 
3 354 5 6 
3 352 9 50 
3 352 50 10 
3 352 10 354 
3 50 9 11 
3 9 352 351 
3 351 8 9 
3 14 15 47 
3 351 15 8 
3 15 351 47 
3 12 13 14 
3 7 14 13 
3 12 11 16 
3 12 16 13 
3 14 7 15 
3 11 9 16 
3 25 24 17 
3 25 17 18 
3 18 17 23 
3 18 23 19 
3 30 29 28 
3 30 28 21 
3 21 28 20 
3 21 20 22 
3 23 346 43 
3 19 23 27 
3 43 27 23 
3 18 19 27 
3 17 346 23 
3 271 346 24 
3 17 24 346 
3 280 271 24 
3 280 24 25 
3 25 18 280 
3 18 28 26 
3 18 26 280 
3 28 18 27 
3 28 27 39 
3 28 39 20 
3 22 20 39 
3 39 0 22 
3 2 22 0 
3 29 30 26 
3 28 29 26 
3 247 30 2 
3 21 2 30 
3 26 30 247 
3 2 21 22 
3 34 33 40 
3 34 40 31 
3 32 44 33 
3 32 33 34 
3 35 48 36 
3 35 36 37 
3 37 36 38 
3 37 38 46 
3 39 31 40 
3 39 40 0 
3 41 0 40 
3 41 40 33 
3 44 41 33 
3 27 36 34 
3 27 34 39 
3 43 46 38 
3 43 38 27 
3 38 36 27 
3 34 31 39 
3 42 46 43 
3 32 34 347 
3 347 44 32 
3 44 347 349 
3 36 45 347 
3 36 347 34 
3 349 41 44 
3 35 37 42 
3 46 42 37 
3 48 35 45 
3 47 45 35 
3 42 47 35 
3 48 45 36 
3 358 255 49 
3 358 49 343 
3 12 358 11 
3 358 50 11 
3 50 358 343 
3 51 342 3 
3 50 343 51 
3 50 51 4 
3 4 10 50 
3 10 4 5 
3 342 51 343 
3 52 53 54 
3 52 54 64 
3 64 54 62 
3 64 62 55 
3 56 61 57 
3 56 57 92 
3 58 59 60 
3 61 59 58 
3 61 58 57 
3 58 54 111 
3 54 58 60 
3 60 62 54 
3 62 100 55 
3 100 62 60 
3 100 63 55 
3 65 52 63 
3 64 63 52 
3 53 52 65 
3 63 64 55 
3 111 53 65 
3 111 54 53 
3 66 73 67 
3 66 67 77 
3 77 67 68 
3 77 68 69 
3 83 81 76 
3 83 76 70 
3 70 76 79 
3 70 79 78 
3 68 72 320 
3 69 68 71 
3 320 71 68 
3 77 69 71 
3 67 72 68 
3 319 72 73 
3 67 73 72 
3 74 319 73 
3 74 73 66 
3 66 77 74 
3 75 74 77 
3 75 77 76 
3 71 80 76 
3 71 76 77 
3 76 80 79 
3 78 79 80 
3 80 107 78 
3 84 78 107 
3 81 83 75 
3 76 81 75 
3 82 83 84 
3 70 84 83 
3 75 83 82 
3 84 70 78 
3 84 107 103 
3 84 87 82 
3 85 84 103 
3 84 85 87 
3 85 86 87 
3 334 85 103 
3 88 89 109 
3 88 109 326 
3 89 88 90 
3 89 90 91 
3 56 92 91 
3 56 91 90 
3 97 96 93 
3 97 93 94 
3 105 95 96 
3 105 96 97 
3 108 106 102 
3 108 102 98 
3 98 102 101 
3 98 101 104 
3 99 94 93 
3 99 93 100 
3 100 93 96 
3 100 96 321 
3 95 321 96 
3 332 102 97 
3 332 97 99 
3 334 104 101 
3 334 101 332 
3 101 102 332 
3 97 94 99 
3 103 98 104 
3 103 104 334 
3 105 97 71 
3 71 95 105 
3 95 71 320 
3 71 97 102 
3 71 102 80 
3 320 321 95 
3 108 98 103 
3 106 108 80 
3 107 80 108 
3 103 107 108 
3 106 80 102 
3 91 92 57 
3 58 89 91 
3 109 89 110 
3 89 327 110 
3 57 58 91 
3 335 58 111 
3 335 111 65 
3 335 112 327 
3 112 335 86 
3 335 327 58 
3 89 58 327 
3 239 251 257 
3 239 113 238 
3 115 239 257 
3 239 115 113 
3 115 114 113 
3 122 115 257 
3 116 124 120 
3 116 120 125 
3 125 120 123 
3 125 123 117 
3 129 128 118 
3 129 118 119 
3 119 118 126 
3 119 126 127 
3 115 122 123 
3 115 123 120 
3 122 121 117 
3 122 117 123 
3 125 117 121 
3 114 115 124 
3 124 115 120 
3 144 114 124 
3 144 124 116 
3 116 125 144 
3 125 118 145 
3 125 145 144 
3 121 359 118 
3 121 118 125 
3 118 359 126 
3 127 126 359 
3 359 266 127 
3 266 130 119 
3 266 119 127 
3 128 129 145 
3 118 128 145 
3 131 129 130 
3 119 130 129 
3 145 129 131 
3 130 266 276 
3 130 132 131 
3 283 130 276 
3 130 283 132 
3 283 290 132 
3 309 283 276 
3 135 133 138 
3 135 138 139 
3 134 135 139 
3 134 139 136 
3 146 137 141 
3 146 141 147 
3 137 143 142 
3 137 142 141 
3 140 238 138 
3 140 138 133 
3 113 138 238 
3 113 139 138 
3 136 139 113 
3 316 140 135 
3 316 135 141 
3 290 316 142 
3 290 142 143 
3 142 316 141 
3 135 140 133 
3 132 290 143 
3 134 144 135 
3 144 134 136 
3 136 114 144 
3 141 135 144 
3 141 144 145 
3 114 136 113 
3 146 132 137 
3 143 137 132 
3 147 145 146 
3 131 146 145 
3 132 146 131 
3 147 141 145 
3 168 148 199 
3 168 178 167 
3 230 168 199 
3 168 230 178 
3 230 231 178 
3 201 230 199 
3 300 303 218 
3 300 151 149 
3 150 300 218 
3 300 150 151 
3 150 159 151 
3 158 150 218 
3 160 152 153 
3 160 153 161 
3 161 153 154 
3 161 154 155 
3 169 166 163 
3 169 163 165 
3 165 163 156 
3 165 156 157 
3 150 158 154 
3 150 154 153 
3 158 336 155 
3 158 155 154 
3 161 155 336 
3 159 150 152 
3 152 150 153 
3 162 159 152 
3 162 152 160 
3 160 161 162 
3 161 163 176 
3 161 176 162 
3 336 164 163 
3 336 163 161 
3 163 164 156 
3 157 156 164 
3 164 148 157 
3 148 168 165 
3 148 165 157 
3 166 169 176 
3 163 166 176 
3 167 169 168 
3 165 168 169 
3 176 169 167 
3 182 181 177 
3 182 177 171 
3 170 182 171 
3 170 171 172 
3 183 175 173 
3 183 173 174 
3 175 179 180 
3 175 180 173 
3 176 167 177 
3 176 177 181 
3 178 177 167 
3 178 171 177 
3 172 171 178 
3 162 176 182 
3 162 182 173 
3 159 162 180 
3 159 180 179 
3 180 162 173 
3 182 176 181 
3 151 159 179 
3 170 311 182 
3 311 170 172 
3 172 231 311 
3 173 182 311 
3 173 311 314 
3 231 172 178 
3 183 151 175 
3 179 175 151 
3 174 314 183 
3 149 183 314 
3 151 183 149 
3 174 173 314 
3 190 187 189 
3 190 189 188 
3 195 190 188 
3 195 188 184 
3 185 197 192 
3 185 192 198 
3 197 194 193 
3 197 193 192 
3 186 65 189 
3 186 189 187 
3 318 188 189 
3 186 187 190 
3 318 189 65 
3 191 186 190 
3 191 190 192 
3 148 191 193 
3 148 193 194 
3 191 192 193 
3 199 148 194 
3 192 190 196 
3 192 196 200 
3 319 184 318 
3 195 184 196 
3 319 196 184 
3 196 190 195 
3 185 199 197 
3 194 197 199 
3 200 201 185 
3 200 185 198 
3 199 185 201 
3 198 192 200 
3 184 188 318 
3 196 319 74 
3 196 301 200 
3 200 301 201 
3 74 301 196 
3 213 75 82 
3 301 75 213 
3 303 301 212 
3 213 212 301 
3 74 75 301 
3 203 202 209 
3 203 209 210 
3 204 203 210 
3 204 210 216 
3 205 208 206 
3 205 206 207 
3 208 214 211 
3 208 211 206 
3 213 82 209 
3 213 209 202 
3 87 209 82 
3 87 210 209 
3 216 210 87 
3 212 213 203 
3 212 203 206 
3 303 212 211 
3 303 211 214 
3 211 212 206 
3 203 213 202 
3 218 303 214 
3 204 215 203 
3 215 204 216 
3 216 86 215 
3 206 203 215 
3 206 215 217 
3 86 216 87 
3 205 218 208 
3 214 208 218 
3 207 217 205 
3 158 205 217 
3 218 205 158 
3 207 206 217 
3 219 220 221 
3 219 221 232 
3 232 221 225 
3 232 225 226 
3 237 222 235 
3 237 235 223 
3 223 235 224 
3 223 224 233 
3 230 201 225 
3 230 225 221 
3 201 227 226 
3 201 226 225 
3 232 226 227 
3 232 227 302 
3 228 302 305 
3 228 305 229 
3 231 230 220 
3 220 230 221 
3 310 231 220 
3 310 220 219 
3 310 219 232 
3 232 228 310 
3 228 232 302 
3 307 235 306 
3 233 224 307 
3 224 235 307 
3 239 223 233 
3 307 251 233 
3 239 233 251 
3 234 306 235 
3 306 234 229 
3 306 229 305 
3 236 234 235 
3 236 235 222 
3 238 236 222 
3 238 222 237 
3 239 238 237 
3 223 239 237 
3 250 240 249 
3 250 249 241 
3 242 250 241 
3 242 241 254 
3 256 245 243 
3 256 243 244 
3 245 252 246 
3 245 246 243 
3 278 247 249 
3 278 249 240 
3 248 249 247 
3 248 241 249 
3 254 241 248 
3 279 278 250 
3 279 250 243 
3 251 279 246 
3 251 246 252 
3 246 279 243 
3 250 278 240 
3 257 251 252 
3 242 253 250 
3 253 242 254 
3 254 255 253 
3 243 250 253 
3 243 253 258 
3 255 254 248 
3 256 257 245 
3 252 245 257 
3 244 258 256 
3 122 256 258 
3 257 256 122 
3 244 243 258 
3 269 268 264 
3 269 264 265 
3 270 269 265 
3 270 265 273 
3 275 259 262 
3 275 262 274 
3 259 260 261 
3 259 261 262 
3 263 12 264 
3 263 264 268 
3 345 264 12 
3 345 265 264 
3 273 265 345 
3 267 263 269 
3 267 269 262 
3 266 267 261 
3 266 261 260 
3 261 267 262 
3 269 263 268 
3 276 266 260 
3 270 272 269 
3 272 270 273 
3 273 271 272 
3 262 269 272 
3 262 272 277 
3 271 273 345 
3 275 276 259 
3 260 259 276 
3 274 277 275 
3 309 275 277 
3 276 275 309 
3 274 262 277 
3 272 271 280 
3 272 281 277 
3 277 281 309 
3 280 281 272 
3 278 26 247 
3 281 26 278 
3 251 281 279 
3 278 279 281 
3 280 26 281 
3 282 289 285 
3 282 285 287 
3 287 285 284 
3 287 284 286 
3 299 298 296 
3 299 296 294 
3 294 296 293 
3 294 293 295 
3 283 309 284 
3 283 284 285 
3 309 308 286 
3 309 286 284 
3 287 286 308 
3 287 308 288 
3 291 288 304 
3 291 304 315 
3 290 283 289 
3 289 283 285 
3 317 290 289 
3 317 289 282 
3 317 282 287 
3 287 291 317 
3 291 287 288 
3 292 296 297 
3 295 293 292 
3 293 296 292 
3 300 294 295 
3 292 303 295 
3 300 295 303 
3 313 297 296 
3 297 313 315 
3 297 315 304 
3 312 313 296 
3 312 296 298 
3 149 312 298 
3 149 298 299 
3 300 149 299 
3 294 300 299 
3 301 227 201 
3 301 305 302 
3 301 302 227 
3 292 301 303 
3 301 292 297 
3 304 301 297 
3 281 305 301 
3 281 307 306 
3 307 281 251 
3 301 304 281 
3 281 304 288 
3 281 308 309 
3 308 281 288 
3 306 305 281 
3 311 231 310 
3 311 228 229 
3 311 310 228 
3 314 311 229 
3 314 312 149 
3 314 313 312 
3 313 314 315 
3 315 314 229 
3 140 234 236 
3 236 238 140 
3 140 316 229 
3 316 291 315 
3 290 317 316 
3 291 316 317 
3 315 229 316 
3 234 140 229 
3 63 100 321 
3 63 318 65 
3 72 63 321 
3 63 72 318 
3 72 319 318 
3 320 72 321 
3 330 325 322 
3 330 322 331 
3 331 322 324 
3 331 324 323 
3 324 85 334 
3 322 85 324 
3 334 323 324 
3 323 334 333 
3 86 85 325 
3 322 325 85 
3 330 86 325 
3 331 323 333 
3 331 329 327 
3 326 109 110 
3 326 110 328 
3 328 110 327 
3 328 327 329 
3 86 330 112 
3 330 331 112 
3 112 331 327 
3 331 333 329 
3 90 61 56 
3 90 88 59 
3 328 88 326 
3 88 328 329 
3 59 88 329 
3 59 61 90 
3 99 60 59 
3 99 100 60 
3 329 333 332 
3 99 59 332 
3 333 334 332 
3 59 329 332 
3 215 335 217 
3 158 217 336 
3 217 335 336 
3 335 215 86 
3 186 335 65 
3 191 335 186 
3 148 164 191 
3 335 191 164 
3 336 335 164 
3 340 339 338 
3 340 338 344 
3 344 338 337 
3 344 337 341 
3 337 1 349 
3 338 1 337 
3 349 341 337 
3 341 349 348 
3 255 1 339 
3 338 339 1 
3 340 255 339 
3 344 341 348 
3 350 343 49 
3 350 49 348 
3 353 3 342 
3 353 342 356 
3 356 342 343 
3 356 343 350 
3 255 340 49 
3 340 344 49 
3 348 49 344 
3 14 47 42 
3 14 345 12 
3 346 14 42 
3 14 346 345 
3 346 271 345 
3 43 346 42 
3 347 348 349 
3 347 350 348 
3 45 350 347 
3 45 47 351 
3 351 352 45 
3 352 350 45 
3 357 353 356 
3 352 355 357 
3 352 357 350 
3 355 352 354 
3 354 6 355 
3 356 350 357 
3 253 358 258 
3 122 258 121 
3 258 358 121 
3 358 253 255 
3 263 358 12 
3 267 358 263 
3 266 359 267 
3 358 267 359 
3 121 358 359 
