ply
format ascii 1.0
comment VCGLIB generated
element vertex 340
property float x
property float y
property float z
property float nx
property float ny
property float nz
element face 676
property list uchar int vertex_indices
end_header
16 -5 98 0 -0.785398 0 
17 0 99 0.197396 0 0 
17 -2.5 99 1.5708 0 0 
17 -2.5 98.5 0.197396 0 0 
17 0 98.5 0.197396 0 0 
17 -5 98 1.3734 0 0 
17 2.5 98.5 0.197396 0 0 
17 -2.5 99.5 0.394791 0 0 
17 -5 99 0.197396 0 0 
17 -5 100 0.197396 0 0 
17 2.5 99 1.5708 0 0 
17 0 99.5 1.5708 0 0 
17 5 99 1.3734 0 0 
17 2.5 99.5 0.394791 0 0 
17 5 98 0 1.5708 0 
16 5 100 0 0.785398 0 
15 5 99 0 0.785398 0 
17 0 70 0 0 -1.5708 
17 5 70 0 0 -1.5708 
16.5 2.5 100 0 0 1.3734 
15.5 2.5 100 0 0 1.5708 
15.5 0 100 0 0 1.3734 
16 0 100 0 0 1.3734 
15.5 -2.5 100 0 0 1.3734 
16.5 0 100 0 0 0.197396 
16 -2.5 100 0 0 1.3734 
16.5 -2.5 100 0 0 1.5708 
15 5 100 0 0 1.3734 
16 -5 100 0 0 1.3734 
17 0 100 0 0 1.3734 
16 2.5 100 0 0 1.5708 
17 5 100 0 0 1.3734 
-2 -5 100 0 -1.5708 0 
0 -5 99 0 -1.5708 0 
-2 0 99 -1.3734 0 0 
-2 -2.5 99 -1.5708 0 0 
-2 0 99.5 -1.3734 0 0 
-2 2.5 99 -0.197396 0 0 
-2 0 98.5 -1.5708 0 0 
-2 0 98 -1.3734 0 0 
-2 2.5 98.5 -1.3734 0 0 
-2 0 100 -0.197396 0 0 
-2 5 100 -0.197396 0 0 
-2 2.5 99.5 -2.7468 0 0 
-2 -2.5 98.5 -1.3734 0 0 
-2 -2.5 99.5 -1.3734 0 0 
-2 -5 99 -1.3734 0 0 
0 -5.55112e-17 14 1.5708 0 0 
0 2.22045e-16 26 1.5708 0 0 
0 -5 10 0.558599 0 0 
0 -2.5 14 1.77619 0 0 
0 -2.5 26 1.26791 0 0 
0 -5 34 0.302885 0 0 
0 -5 42 0.147889 0 0 
0 -5 66 0.674741 0 0 
0 5 58 1.5708 0 0 
0 -5 90 0.674741 0 0 
0 5 82 0.896055 0 0 
0 2.5 14 1.3654 0 0 
0 2.5 26 1.72579 0 0 
0 5 26 1.5708 0 0 
0 5 10 2.58299 0 0 
0 5 18 0.558599 0 0 
0 0 2 1.3654 0 0 
0 5 50 1.3654 0 0 
-1 2.5 0 0 0 -1.5708 
-1 0 0 0 0 -1.5708 
-1 -2.5 0 0 0 -1.5708 
-1.5 -2.5 0 0 0 -1.3734 
-0.5 -2.5 0 0 0 -1.3734 
-1.5 2.5 0 0 0 -2.7468 
-2 0 0 0 0 -1.3734 
-1.5 0 0 0 0 -1.5708 
0 -5 0 0 0 -0.197396 
-1 -5 0 0 0 -1.3734 
-0.5 0 0 0 0 -1.5708 
-0.5 2.5 0 0 0 -1.3734 
0 5 0 0 0 -1.3734 
-41 -5 0 0 -1.5708 0 
-40 -5 0 0 -1.5708 0 
-41 -2.5 1.5 -0.197396 0 0 
-41 -2.5 1 -1.5708 0 0 
-41 2.5 1 -0.197396 0 0 
-41 0 1 -1.5708 0 0 
-41 2.5 0.5 -1.3734 0 0 
-41 0 0 -0.197396 0 0 
-41 -2.5 0.5 -0.197396 0 0 
-41 0 0.5 -1.5708 0 0 
-41 2.5 1.5 -0.394791 0 0 
-41 5 2 -0.197396 0 0 
-41 -5 1 -0.197396 0 0 
-41 0 1.5 -1.5708 0 0 
-40 -5 6.66667 0 -0.211093 0 
-39.5 -5 6.66667 0 -0.211093 0 
-40 -5 4.33333 0 -1.3597 0 
-40.5 -5 4.33333 0 -2.82376 0 
-41 -5 9 0 -0.104359 0 
-40.5 -5 6.66667 0 -2.9305 0 
-39 -5 30 0 -1.5708 0 
-39 -5 16 0 -1.2925 0 
-39.5 -5 4.33333 0 -1.3597 0 
-40 -5 2 0 -1.3597 0 
-40 5 6.66667 0 1.3597 0 
-39.5 5 6.66667 0 1.78189 0 
-39 5 30 0 0.2783 0 
-39 5 23 0 1.5708 0 
-41 5 30 0 1.5708 0 
-41 5 16 0 1.2925 0 
-41 5 23 0 1.5708 0 
-39.5 5 4.33333 0 1.3597 0 
-40 5 2 0 0.211093 0 
-40.5 5 6.66667 0 0.106736 0 
-40 5 4.33333 0 1.5708 0 
-40.5 5 4.33333 0 0.422187 0 
-39 5 16 0 1.46406 0 
-41 5 9 -2.52134 0 0 
-41 -5 16 -0.343024 0 0 
-41 0 2 -0.277226 0 0 
-41 0 30 -0.950547 0 0 
-41 -5 23 -2.52134 0 0 
-41 -5 2 -1.5708 0 0 
-41 -5 30 0 0 1.5708 
-39 0 30 0 0 1.19029 
-36.6875 -5 1.5 0 -1.5708 0 
-34.375 -5 1 0 -0.212939 0 
-36.6875 -5 1 0 -1.5708 0 
-34.375 -5 0.5 0 -1.5708 0 
-6.625 -5 1.5 0 -1.5708 0 
-32.8333 -5 0 0 -0.31362 0 
-36.6875 -5 0.5 0 -1.35786 0 
-39 -5 1 0 -0.212939 0 
-32.8333 -5 2 0 -0.261804 0 
-34.375 -5 1.5 0 -1.88442 0 
-26.6667 -5 2 0 -0.129009 0 
-26.6667 -5 0 0 -1.44179 0 
-6.625 -5 0.5 0 -1.88442 0 
-4.3125 -5 1 0 -1.5708 0 
-8.16667 -5 0 0 -0.129009 0 
-4.3125 -5 0.5 0 -2.79964 0 
-2 -5 0 0 -1.35786 0 
-20.5 -5 2 0 -1.5708 0 
-8.16667 -5 2 0 -2.56617 0 
-14.3333 -5 2 0 -0.129009 0 
-6.625 -5 1 0 -0.995372 0 
-4.3125 -5 1.5 0 -0.425877 0 
-41 5 1 0 1.5708 0 
-39.5 2.5 0 0 0 -0.197396 
-40 0 0 0 0 -1.3734 
-40 2.5 0 0 0 -0.197396 
-40 -2.5 0 0 0 -1.3734 
-40.5 -2.5 0 0 0 -2.7468 
-41 5 0 0 0 -0.197396 
-40.5 0 0 0 0 -1.5708 
-40.5 2.5 0 0 0 -0.394791 
-40 5 0 0 0 -0.197396 
-39 -5 0 0 0 -0.197396 
-39 0 0 0 0 -0.197396 
-39.5 -2.5 0 0 0 -0.197396 
-39 5 0 0 0 -0.197396 
-39.5 0 0 0 0 -1.5708 
-39 5 2 0.610726 0 0 
-39 -5 9 0.610726 0 0 
-39 -5 23 2.52134 0 0 
-39 5 9 0.96007 0 0 
-2 -5 1 0 -0.785398 0 
-2 -5 2 0 -1.5708 0 
0 -5 1 0 -0.785398 0 
-1 -5 2 0 -1.5708 0 
0 2.5 1.5 1.3734 0 0 
0 2.5 1 1.5708 0 0 
0 -2.5 1.5 1.5708 0 0 
0 -2.5 1 1.3734 0 0 
0 9.02056e-17 1 1.3734 0 0 
0 -2.5 0.5 0.197396 0 0 
0 -1.76942e-16 0.5 0.197396 0 0 
0 2.5 0.5 1.5708 0 0 
0 0 0 1.3734 0 0 
0 -9.02056e-17 1.5 1.5708 0 0 
0 5 2 0.197396 0 0 
0 5 1 0 0.785398 0 
-1 5 0 0 1.5708 0 
-1 5 2 0 1.5708 0 
-6.625 5 1.5 0 0.212939 0 
-4.3125 5 0.5 0 1.35786 0 
-6.625 5 1 0 1.35786 0 
-6.625 5 0.5 0 1.5708 0 
-34.375 5 0.5 0 1.35786 0 
-2 5 0 0 0.105249 0 
-4.3125 5 1 0 1.5708 0 
-14.3333 5 2 0 0.313621 0 
-2 5 1 0 1.35786 0 
-4.3125 5 1.5 0 0.425877 0 
-36.6875 5 0.5 0 2.79964 0 
-39 5 1 0 1.35786 0 
-26.6667 5 2 0 1.44179 0 
-26.6667 5 0 0 1.44179 0 
-34.375 5 1 0 0.446415 0 
-34.375 5 1.5 0 0.10769 0 
-36.6875 5 1.5 0 2.92865 0 
-36.6875 5 1 0 1.5708 0 
-20.5 -5 0 0 0 -0.263964 
-32.8333 5 0 0 0 -0.681298 
-14.3333 -5 0 0 0 -2.75644 
-20.5 5 0 0 0 -2.61367 
-8.16667 5 0 0 0 -0.681298 
-14.3333 5 0 0 0 -0.385157 
-39 -5 2 0 0 1.5708 
-32.8333 5 2 0 0 1.5708 
-20.5 5 2 0 0 0.552584 
-8.16667 5 2 0 0 0.552584 
5 -5 98 0 -0.380506 0 
15 -5 100 0 -1.5708 0 
10 -5 100 0 -0.197396 0 
15 -5 99 0 -1.3734 0 
0 5 99 0 1.5708 0 
-1 5 100 0 0.785398 0 
-2 5 99 0 0.785398 0 
-0.5 2.5 100 0 0 0.197396 
-1 0 100 0 0 1.3734 
-1 2.5 100 0 0 0.197396 
-1 -2.5 100 0 0 1.5708 
-0.5 -2.5 100 0 0 1.5708 
-1.5 0 100 0 0 1.5708 
-1.5 -2.5 100 0 0 0.197396 
-0.5 0 100 0 0 1.5708 
0 -5 100 0 0 0.197396 
-1 -5 100 0 0 1.3734 
-1.5 2.5 100 0 0 1.3734 
-1 -5 4.66667 0 -1.5708 0 
-0.5 -5 92.6667 0 -1.5708 0 
-1 -5 95.3333 0 -1.38545 0 
-1.5 -5 4.66667 0 -2.86277 0 
0 -5 26 0 -0.244978 0 
-2 -5 18 0 -0.0934764 0 
-2 -5 10 0 -2.78282 0 
-1.5 -5 7.33333 0 -1.75614 0 
-0.5 -5 4.66667 0 -1.38545 0 
-2 -5 42 0 -0.244978 0 
-2 -5 50 0 -0.244978 0 
0 -5 50 0 -1.5708 0 
-2 -5 74 0 -0.244978 0 
0 -5 74 0 -1.5708 0 
-2 -5 82 0 -0.244978 0 
0 -5 58 0 -1.5708 0 
-1 -5 92.6667 0 -1.21203 0 
-1.5 -5 95.3333 0 -2.95624 0 
-1.5 -5 92.6667 0 -0.0934764 0 
-2 -5 98 0 -0.0934764 0 
-1 -5 98 0 -1.38545 0 
0 -5 82 0 -1.32582 0 
-2 -5 66 0 -1.32582 0 
0 -5 18 0 -1.47732 0 
0 -5 2 0 -0.0934771 0 
-0.5 -5 7.33333 0 -0.0934771 0 
-1 -5 7.33333 0 -0.265294 0 
-0.5 -5 95.3333 0 -0.370696 0 
-0.5 5 4.66667 0 0.185348 0 
-1 5 7.33333 0 1.5708 0 
-1.5 5 92.6667 0 1.5708 0 
-0.5 5 95.3333 0 1.5708 0 
-0.5 5 92.6667 0 1.38545 0 
-0.5 5 7.33333 0 2.95624 0 
0 5 34 0 0.244978 0 
0 5 42 0 1.5708 0 
-2 5 42 0 0.244978 0 
0 5 66 0 1.32582 0 
0 5 74 0 1.5708 0 
-2 5 74 0 0.244978 0 
-2 5 82 0 0.244978 0 
-2 5 90 0 1.5708 0 
0 5 98 0 0.0918714 0 
-1 5 92.6667 0 1.21203 0 
0 5 90 0 0.173423 0 
-2 5 50 0 0.244978 0 
-2 5 2 0 1.38545 0 
-1.5 5 7.33333 0 2.95624 0 
-1.5 5 4.66667 0 0.0934771 0 
-2 5 98 0 0.0918714 0 
-1 5 98 0 0.185348 0 
-1.5 5 95.3333 0 0.370696 0 
-1 5 95.3333 0 1.5708 0 
-1 5 4.66667 0 1.5708 0 
-2 0 86 -1.5708 0 0 
-2 0 74 -1.5708 0 0 
-2 5 18 -0.896055 0 0 
-2 -5 26 -0.674741 0 0 
-2 5 34 -0.674741 0 0 
-2 5 26 -0.896055 0 0 
-2 5 58 -2.83871 0 0 
-2 -5 34 -0.674741 0 0 
-2 5 66 -0.302885 0 0 
-2 2.5 86 -0.410791 0 0 
-2 2.5 74 -1.72579 0 0 
-2 5 10 -0.674741 0 0 
-2 -2.5 74 -1.72579 0 0 
-2 -2.5 86 -0.205395 0 0 
-2 -5 90 -0.558599 0 0 
-2 -5 58 -0.154997 0 0 
16.5 -5 95.6667 0 -0.211094 0 
16 -5 95.6667 0 -1.3597 0 
15 -5 98 0 -0.104357 0 
15.5 -5 93.3333 0 -1.78189 0 
16.5 -5 93.3333 0 -1.78189 0 
16 -5 93.3333 0 -0.298155 0 
17 -5 84 0 -0.106735 0 
15.5 -5 95.6667 0 -1.3597 0 
17 -5 91 0 -0.104357 0 
17 -5 70 1.5708 0 0 
17 -5 77 2.52134 0 0 
17 0 98 0.950547 0 0 
17 5 77 2.52134 0 0 
16 5 95.6667 0 1.5708 0 
15.5 5 93.3333 0 1.5708 0 
15 5 77 0 1.2925 0 
15 5 84 0 1.5708 0 
16 5 93.3333 0 0.298155 0 
17 5 91 0 2.7367 0 
17 5 84 0 1.46406 0 
16 5 98 0 1.3597 0 
16.5 5 95.6667 0 0.422186 0 
16.5 5 93.3333 0 1.78189 0 
15 5 70 0 1.2925 0 
15 5 91 0 0.104357 0 
15.5 5 95.6667 0 0.422186 0 
15 0 70 -0.950547 0 0 
15 -5 91 -0.610726 0 0 
15 -5 70 -1.5708 0 0 
15 -5 84 -0.343024 0 0 
15 -5 77 -2.52134 0 0 
15 5 98 0 1.5708 0 
10 5 98 0 0.197396 0 
5 5 98 0 1.19029 0 
0 -5 98 0 0 -1.5708 
10 -5 98 0 0 -0.463648 
5 -5 100 0 0 0.785398 
0 5 100 0 0 1.5708 
10 5 100 0 0 0.463648 
5 5 100 0 0 2.35619 
15 0 100 0 0 0.785398 
0 0 100 0 0 0.463648 
3 213 300 0 
3 213 28 211 
3 8 213 0 
3 213 8 28 
3 8 9 28 
3 5 8 0 
3 13 11 1 
3 13 1 10 
3 11 7 2 
3 11 2 1 
3 1 2 3 
3 1 3 4 
3 10 1 4 
3 10 4 6 
3 8 5 3 
3 309 3 5 
3 3 309 4 
3 6 4 309 
3 7 9 8 
3 8 2 7 
3 2 8 3 
3 29 9 7 
3 12 10 6 
3 6 14 12 
3 14 6 309 
3 13 10 12 
3 7 11 29 
3 13 29 11 
3 29 13 31 
3 12 31 13 
3 12 14 318 
3 12 15 31 
3 16 12 318 
3 12 16 15 
3 16 27 15 
3 329 16 318 
3 324 17 307 
3 324 307 326 
3 321 18 17 
3 321 17 324 
3 19 30 22 
3 19 22 24 
3 30 20 21 
3 30 21 22 
3 22 21 23 
3 22 23 25 
3 24 22 25 
3 24 25 26 
3 338 211 23 
3 28 23 211 
3 23 28 25 
3 26 25 28 
3 20 27 338 
3 338 21 20 
3 21 338 23 
3 15 27 20 
3 29 24 26 
3 26 9 29 
3 9 26 28 
3 19 24 29 
3 20 30 15 
3 19 15 30 
3 15 19 31 
3 29 31 19 
3 46 247 248 
3 46 226 32 
3 226 46 248 
3 226 248 33 
3 226 33 225 
3 332 33 248 
3 45 36 34 
3 45 34 35 
3 36 43 37 
3 36 37 34 
3 34 37 40 
3 34 40 38 
3 35 34 38 
3 35 38 44 
3 216 277 40 
3 39 40 277 
3 40 39 38 
3 44 38 39 
3 43 42 216 
3 216 37 43 
3 37 216 40 
3 41 42 43 
3 46 35 44 
3 44 247 46 
3 247 44 39 
3 45 35 46 
3 43 36 41 
3 45 41 36 
3 41 45 32 
3 46 32 45 
3 48 51 50 
3 48 50 47 
3 59 48 47 
3 59 47 58 
3 50 49 252 
3 51 232 251 
3 251 49 50 
3 252 63 47 
3 252 47 50 
3 53 52 51 
3 51 52 232 
3 53 51 48 
3 50 51 251 
3 53 48 239 
3 54 243 55 
3 54 55 265 
3 243 239 64 
3 243 64 55 
3 249 241 266 
3 249 266 57 
3 332 56 272 
3 332 272 270 
3 56 249 57 
3 56 57 272 
3 241 54 265 
3 241 265 266 
3 58 47 63 
3 263 48 59 
3 59 58 62 
3 59 62 60 
3 58 178 61 
3 58 61 62 
3 58 63 178 
3 262 59 60 
3 59 262 263 
3 48 263 64 
3 239 48 64 
3 76 75 66 
3 76 66 65 
3 65 66 72 
3 65 72 70 
3 66 67 68 
3 66 68 72 
3 75 69 67 
3 75 67 66 
3 71 68 139 
3 74 139 68 
3 68 67 74 
3 69 74 67 
3 70 71 187 
3 71 70 72 
3 72 68 71 
3 180 70 187 
3 176 69 75 
3 69 176 73 
3 73 74 69 
3 76 176 75 
3 70 180 65 
3 76 65 180 
3 180 77 76 
3 176 76 77 
3 90 78 79 
3 90 101 120 
3 130 90 79 
3 90 130 101 
3 130 206 101 
3 155 130 79 
3 80 91 83 
3 80 83 81 
3 91 88 82 
3 91 82 83 
3 83 82 84 
3 83 84 87 
3 81 83 87 
3 81 87 86 
3 145 151 84 
3 85 84 151 
3 84 85 87 
3 86 87 85 
3 88 89 145 
3 145 82 88 
3 82 145 84 
3 117 89 88 
3 90 81 86 
3 86 78 90 
3 78 86 85 
3 80 81 90 
3 88 91 117 
3 80 117 91 
3 117 80 120 
3 90 120 80 
3 92 97 95 
3 92 95 94 
3 93 92 94 
3 93 94 100 
3 96 120 95 
3 96 95 97 
3 101 95 120 
3 96 97 92 
3 96 92 116 
3 121 119 162 
3 121 162 98 
3 119 116 99 
3 119 99 162 
3 95 101 94 
3 206 161 93 
3 206 93 100 
3 101 100 94 
3 100 101 206 
3 92 161 99 
3 92 93 161 
3 99 116 92 
3 102 103 109 
3 102 109 112 
3 111 102 112 
3 111 112 113 
3 163 160 109 
3 163 109 103 
3 110 109 160 
3 163 103 102 
3 163 102 114 
3 104 105 108 
3 104 108 106 
3 105 114 107 
3 105 107 108 
3 109 110 112 
3 89 115 111 
3 89 111 113 
3 110 113 112 
3 113 110 89 
3 102 115 107 
3 102 111 115 
3 107 114 102 
3 115 89 117 
3 107 115 117 
3 107 118 108 
3 108 118 106 
3 117 116 107 
3 96 116 117 
3 107 116 118 
3 121 118 119 
3 116 119 118 
3 120 96 117 
3 118 121 98 
3 118 98 122 
3 106 118 122 
3 106 122 104 
3 132 123 125 
3 132 125 124 
3 124 125 129 
3 124 129 126 
3 144 127 143 
3 144 143 136 
3 136 143 135 
3 136 135 138 
3 130 155 129 
3 155 128 126 
3 155 126 129 
3 129 125 130 
3 124 126 128 
3 124 128 134 
3 140 133 134 
3 140 134 200 
3 206 130 123 
3 125 123 130 
3 131 206 123 
3 131 123 132 
3 131 132 124 
3 124 133 131 
3 133 124 134 
3 137 143 202 
3 138 135 137 
3 135 143 137 
3 164 136 138 
3 137 139 138 
3 164 138 139 
3 142 202 143 
3 142 140 200 
3 142 200 202 
3 141 142 143 
3 141 143 127 
3 165 141 127 
3 165 127 144 
3 164 165 144 
3 136 164 144 
3 193 158 154 
3 193 110 160 
3 110 193 154 
3 154 145 110 
3 145 89 110 
3 151 145 154 
3 146 159 147 
3 146 147 148 
3 148 147 152 
3 148 152 153 
3 147 149 150 
3 147 150 152 
3 159 157 149 
3 159 149 147 
3 150 78 85 
3 78 150 79 
3 152 150 85 
3 151 153 85 
3 152 85 153 
3 151 154 153 
3 153 154 148 
3 79 150 149 
3 157 79 149 
3 155 157 156 
3 159 156 157 
3 157 155 79 
3 158 146 148 
3 158 148 154 
3 146 158 156 
3 146 156 159 
3 161 206 160 
3 161 160 163 
3 122 162 99 
3 122 98 162 
3 99 161 163 
3 99 163 114 
3 99 114 122 
3 104 122 105 
3 114 105 122 
3 164 139 74 
3 164 167 165 
3 166 164 74 
3 164 166 167 
3 166 252 167 
3 73 166 74 
3 168 177 172 
3 168 172 169 
3 177 170 171 
3 177 171 172 
3 172 171 173 
3 172 173 174 
3 169 172 174 
3 169 174 175 
3 166 73 173 
3 176 173 73 
3 173 176 174 
3 175 174 176 
3 170 252 166 
3 166 171 170 
3 171 166 173 
3 63 252 170 
3 179 169 175 
3 175 77 179 
3 77 175 176 
3 168 169 179 
3 170 177 63 
3 168 63 177 
3 63 168 178 
3 179 178 168 
3 179 77 180 
3 179 181 178 
3 190 179 180 
3 179 190 181 
3 190 274 181 
3 187 190 180 
3 182 191 188 
3 182 188 184 
3 184 188 183 
3 184 183 185 
3 198 197 196 
3 198 196 199 
3 199 196 186 
3 199 186 192 
3 190 187 183 
3 187 204 185 
3 187 185 183 
3 183 188 190 
3 184 185 204 
3 184 204 205 
3 189 205 203 
3 189 203 208 
3 274 190 191 
3 188 191 190 
3 209 274 191 
3 209 191 182 
3 209 182 184 
3 184 189 209 
3 189 184 205 
3 201 196 195 
3 192 186 201 
3 186 196 201 
3 193 199 192 
3 201 158 192 
3 193 192 158 
3 194 195 196 
3 194 208 203 
3 194 203 195 
3 207 194 196 
3 207 196 197 
3 160 207 197 
3 160 197 198 
3 193 160 198 
3 199 193 198 
3 156 128 155 
3 156 200 134 
3 156 134 128 
3 201 156 158 
3 156 201 195 
3 203 156 195 
3 71 202 200 
3 71 200 156 
3 71 137 202 
3 137 71 139 
3 156 203 71 
3 71 203 205 
3 71 204 187 
3 204 71 205 
3 131 207 160 
3 131 160 206 
3 131 133 194 
3 131 194 207 
3 133 140 208 
3 133 208 194 
3 142 141 209 
3 142 209 189 
3 141 165 274 
3 141 274 209 
3 189 208 140 
3 189 140 142 
3 33 332 210 
3 225 33 334 
3 210 334 33 
3 210 333 212 
3 210 212 334 
3 213 333 300 
3 211 212 213 
3 333 213 212 
3 214 270 278 
3 214 215 335 
3 215 214 278 
3 278 216 215 
3 216 42 215 
3 277 216 278 
3 217 219 218 
3 217 218 224 
3 219 227 222 
3 219 222 218 
3 218 222 223 
3 218 223 220 
3 224 218 220 
3 224 220 221 
3 41 32 223 
3 226 223 32 
3 223 226 220 
3 221 220 226 
3 227 42 41 
3 41 222 227 
3 222 41 223 
3 215 42 227 
3 339 224 221 
3 221 225 339 
3 225 221 226 
3 217 224 339 
3 227 219 215 
3 217 215 219 
3 215 217 335 
3 339 335 217 
3 254 235 231 
3 254 231 228 
3 253 254 228 
3 253 228 236 
3 255 230 244 
3 255 244 229 
3 230 245 246 
3 230 246 244 
3 234 165 231 
3 234 231 235 
3 285 233 251 
3 285 251 232 
3 289 285 232 
3 289 232 52 
3 233 234 254 
3 228 231 167 
3 165 167 231 
3 234 235 254 
3 228 167 236 
3 237 289 52 
3 237 52 53 
3 238 237 53 
3 238 53 239 
3 240 250 54 
3 240 54 241 
3 242 240 241 
3 242 241 249 
3 297 238 239 
3 297 239 243 
3 244 246 296 
3 245 247 246 
3 296 246 247 
3 248 247 245 
3 296 242 249 
3 296 249 56 
3 250 297 243 
3 250 243 54 
3 251 233 254 
3 252 49 253 
3 252 253 236 
3 167 252 236 
3 254 49 251 
3 49 254 253 
3 56 229 244 
3 248 230 255 
3 332 248 255 
3 245 230 248 
3 255 229 332 
3 296 56 244 
3 229 56 332 
3 257 261 256 
3 257 256 281 
3 275 257 281 
3 275 281 276 
3 279 280 271 
3 279 271 258 
3 280 259 260 
3 280 260 271 
3 61 178 256 
3 61 256 261 
3 60 62 284 
3 60 284 287 
3 262 60 287 
3 262 287 286 
3 284 62 61 
3 256 181 281 
3 263 262 286 
3 263 286 264 
3 257 61 261 
3 64 263 264 
3 64 264 273 
3 181 256 178 
3 265 55 288 
3 265 288 290 
3 57 266 267 
3 57 267 268 
3 272 57 268 
3 272 268 269 
3 266 265 290 
3 266 290 267 
3 270 272 260 
3 270 260 259 
3 271 260 272 
3 259 278 270 
3 269 271 272 
3 55 64 273 
3 55 273 288 
3 61 257 284 
3 276 181 274 
3 275 276 293 
3 274 293 276 
3 257 293 284 
3 275 293 257 
3 277 279 258 
3 278 280 279 
3 277 278 279 
3 259 280 278 
3 271 269 258 
3 258 269 277 
3 181 276 281 
3 295 282 283 
3 295 283 294 
3 282 291 292 
3 282 292 283 
3 284 293 234 
3 284 234 233 
3 286 287 285 
3 286 285 289 
3 287 284 233 
3 287 233 285 
3 273 264 237 
3 273 237 238 
3 283 288 273 
3 283 273 238 
3 264 286 289 
3 264 289 237 
3 292 267 290 
3 291 269 268 
3 268 267 292 
3 288 292 290 
3 39 277 291 
3 291 277 269 
3 292 291 268 
3 292 288 283 
3 293 274 165 
3 293 165 234 
3 283 297 294 
3 238 297 283 
3 247 39 282 
3 247 282 295 
3 295 294 240 
3 295 240 242 
3 291 282 39 
3 294 250 240 
3 295 242 296 
3 295 296 247 
3 250 294 297 
3 298 299 303 
3 298 303 302 
3 299 305 301 
3 299 301 303 
3 327 328 308 
3 327 308 304 
3 303 325 327 
3 303 327 304 
3 300 325 301 
3 300 301 305 
3 0 300 305 
3 303 301 325 
3 328 326 307 
3 328 307 308 
3 303 306 302 
3 306 303 304 
3 305 299 0 
3 298 0 299 
3 302 306 298 
3 5 298 306 
3 0 298 5 
3 308 307 17 
3 304 308 17 
3 304 309 306 
3 306 309 5 
3 17 317 304 
3 310 317 17 
3 304 317 309 
3 14 309 316 
3 317 316 309 
3 18 310 17 
3 323 311 315 
3 323 315 312 
3 311 319 320 
3 311 320 315 
3 317 310 313 
3 317 313 314 
3 315 316 317 
3 315 317 314 
3 14 316 320 
3 14 320 319 
3 318 14 319 
3 315 320 316 
3 310 18 321 
3 310 321 313 
3 315 322 312 
3 322 315 314 
3 319 311 318 
3 323 318 311 
3 312 322 323 
3 329 323 322 
3 318 323 329 
3 324 313 321 
3 322 314 327 
3 322 327 325 
3 329 322 325 
3 329 325 300 
3 314 313 324 
3 328 324 326 
3 327 324 328 
3 327 314 324 
3 16 329 330 
3 27 16 336 
3 330 336 16 
3 336 330 331 
3 336 331 337 
3 214 331 270 
3 335 337 214 
3 331 214 337 
3 210 332 270 
3 210 270 331 
3 210 331 330 
3 210 330 333 
3 333 330 329 
3 333 329 300 
3 339 225 334 
3 335 339 337 
3 339 336 337 
3 212 339 334 
3 338 212 211 
3 27 336 338 
3 338 336 339 
3 212 338 339 
