ply
format ascii 1.0
comment VCGLIB generated
element vertex 136
property float x
property float y
property float z
property float nx
property float ny
property float nz
element face 268
property list uchar int vertex_indices
end_header
0 -50 0 0 -1.5708 0 
5 -50 0 0 -0.785398 0 
5 -50 10 0 -1.5708 0 
10 -25 5 0.197396 0 0 
10 -12.5 5 1.5708 0 0 
10 -37.5 5 1.3734 0 0 
10 -25 7.5 1.3734 0 0 
10 -25 2.5 1.5708 0 0 
10 -37.5 2.5 0.394791 0 0 
10 -25 0 1.3734 0 0 
10 -50 5 0.197396 0 0 
10 -50 10 0.197396 0 0 
10 -37.5 7.5 2.7468 0 0 
10 8.88178e-16 0 0.197396 0 0 
10 -12.5 2.5 2.7468 0 0 
10 -12.5 7.5 1.3734 0 0 
10 10 5 0 0.785398 0 
0 10 5 0 0.785398 0 
0 -37.5 7.5 -0.197396 0 0 
0 -25 5 -1.3734 0 0 
0 -25 2.5 -1.47113 0 0 
0 9.4369e-16 0 -0.0996686 0 0 
0 -25 7.5 -1.67046 0 0 
0 -50 5 -0.197396 0 0 
0 -25 0 -0.197396 0 0 
0 -37.5 2.5 -2.7468 0 0 
0 -25 10 -0.197396 0 0 
0 -50 10 -1.3734 0 0 
0 -37.5 5 -1.5708 0 0 
7.5 -12.5 0 0 0 -0.197396 
5 -12.5 0 0 0 -1.3734 
2.5 -25 0 0 0 -0.197396 
2.5 -12.5 0 0 0 -1.5708 
5 -25 0 0 0 -0.197396 
7.5 -25 0 0 0 -1.3734 
2.5 -37.5 0 0 0 -0.394791 
5 -37.5 0 0 0 -1.5708 
7.5 -37.5 0 0 0 -0.197396 
10 -50 0 0 0 -0.197396 
5 -25 10 0 0 0.197396 
7.5 -12.5 10 0 0 0.197396 
2.5 -12.5 10 0 0 1.5708 
2.5 -25 10 0 0 0.197396 
7.5 -25 10 0 0 1.3734 
5 -37.5 10 0 0 1.3734 
7.5 -37.5 10 0 0 1.5708 
2.5 -37.5 10 0 0 0.197396 
10 -25 10 0 0 0.197396 
5 -12.5 10 0 0 1.5708 
5 9.15934e-16 10 0 0 1.3734 
10 8.88178e-16 10 0 0 1.3734 
-80 -50 0 0 -1.5708 0 
-75 -50 0 0 -1.5708 0 
-70 -25 5 0.197396 0 0 
-70 -37.5 5 1.5708 0 0 
-70 -50 5 1.3734 0 0 
-70 -37.5 2.5 2.7468 0 0 
-70 -50 0 0.197396 0 0 
-70 -25 10 0.197396 0 0 
-70 -37.5 7.5 2.7468 0 0 
-70 8.88178e-16 0 0.0996686 0 0 
-70 -25 2.5 1.67046 0 0 
-70 -25 7.5 1.47113 0 0 
-70 8.88178e-16 10 1.3734 0 0 
-80 10 5 0 0.785398 0 
-80 10 10 0 1.5708 0 
-75 10 0 0 0.785398 0 
-80 -25 7.5 -0.197396 0 0 
-80 -25 5 -1.3734 0 0 
-80 -37.5 2.5 -1.5708 0 0 
-80 -12.5 2.5 -0.394791 0 0 
-80 -25 2.5 -1.5708 0 0 
-80 -25 0 -1.3734 0 0 
-80 -12.5 5 -1.5708 0 0 
-80 -12.5 7.5 -2.7468 0 0 
-80 -50 5 -1.3734 0 0 
-80 -37.5 5 -1.5708 0 0 
-80 -37.5 7.5 -2.7468 0 0 
-72.5 -12.5 0 0 0 -0.197396 
-75 -25 0 0 0 -1.3734 
-75 -12.5 0 0 0 -0.197396 
-77.5 -25 0 0 0 -1.5708 
-75 -37.5 0 0 0 -0.197396 
-77.5 -37.5 0 0 0 -1.3734 
-77.5 -12.5 0 0 0 -0.394791 
-70 -25 0 0 0 -1.3734 
-72.5 -37.5 0 0 0 -0.197396 
-72.5 -25 0 0 0 -1.5708 
-77.5 -25 10 0 0 1.5708 
-75 -25 10 0 0 1.5708 
-72.5 -25 10 0 0 0.197396 
-77.5 -37.5 10 0 0 0.394791 
-80 -50 10 0 0 1.3734 
-75 -50 10 0 0 0.197396 
-75 -37.5 10 0 0 1.5708 
-80 8.88178e-16 10 0 0 0.197396 
-80 -25 10 0 0 1.3734 
-77.5 -12.5 10 0 0 0.197396 
-72.5 -37.5 10 0 0 2.7468 
-70 -50 10 0 0 1.3734 
-72.5 -12.5 10 0 0 0.197396 
-75 -12.5 10 0 0 1.5708 
-75 8.88178e-16 10 0 0 0.197396 
-80 10 0 -1.5708 0 0 
-80 8.88178e-16 5 -0.785398 0 0 
-80 8.88178e-16 0 0 0 -1.5708 
-80 5 0 0 0 -0.785398 
-70 5 0 0 0 -0.785398 
-75 8.88178e-16 0 0 0 -1.5708 
-70 5 10 0 0 0.785398 
-80 5 10 0 0 0.785398 
-70 10 10 0 0 1.5708 
-75 10 10 0 0 0.785398 
10 5 0 1.5708 0 0 
10 8.88178e-16 5 0.785398 0 0 
10 5 10 0.785398 0 0 
0 5 0 0 0 -0.785398 
5 10 0 0 0 -1.5708 
10 10 0 0 0 -1.5708 
5 9.15934e-16 0 0 0 -0.785398 
10 10 10 0 0 1.5708 
5 10 10 0 0 0.785398 
-23.3333 9.25186e-16 0 1.24566e-18 -1.5708 0 
0 9.4369e-16 10 1.24567e-18 -1.5708 0 
0 10 10 0 1.5708 0 
-70 10 5 0 0.422186 0 
-46.6667 9.06682e-16 0 0 0 -0.211093 
-70 10 0 0 0 -1.5708 
-46.6667 10 0 0 0 -0.211093 
-23.3333 10 0 0 0 -0.404892 
0 10 0 0 0 -1.5708 
-46.6667 9.06682e-16 10 0 0 0.211093 
-46.6667 10 10 0 0 0.211093 
-23.3333 10 10 0 0 0.404892 
-23.3333 9.25186e-16 10 0 0 1.3597 
0 5 10 0 0 0.422186 
3 23 0 1 
3 23 2 27 
3 10 23 1 
3 23 10 2 
3 10 11 2 
3 38 10 1 
3 15 6 3 
3 15 3 4 
3 6 12 5 
3 6 5 3 
3 3 5 8 
3 3 8 7 
3 4 3 7 
3 4 7 14 
3 10 38 8 
3 9 8 38 
3 8 9 7 
3 14 7 9 
3 12 11 10 
3 10 5 12 
3 5 10 8 
3 47 11 12 
3 114 4 14 
3 14 13 114 
3 13 14 9 
3 15 4 114 
3 12 6 47 
3 15 47 6 
3 47 15 50 
3 114 50 15 
3 16 118 117 
3 16 121 120 
3 17 16 117 
3 16 17 121 
3 17 124 121 
3 130 17 117 
3 18 22 19 
3 18 19 28 
3 28 19 20 
3 28 20 25 
3 20 21 24 
3 25 20 24 
3 19 21 20 
3 22 123 19 
3 21 19 123 
3 26 123 22 
3 23 28 25 
3 24 0 25 
3 0 23 25 
3 27 26 18 
3 18 26 22 
3 18 23 27 
3 23 18 28 
3 29 34 33 
3 29 33 30 
3 30 33 31 
3 30 31 32 
3 33 36 35 
3 33 35 31 
3 34 37 36 
3 34 36 33 
3 24 35 0 
3 1 0 35 
3 35 36 1 
3 37 1 36 
3 32 24 21 
3 24 32 31 
3 31 35 24 
3 119 32 21 
3 9 37 34 
3 37 9 38 
3 38 1 37 
3 29 9 34 
3 32 119 30 
3 29 30 119 
3 119 13 29 
3 9 29 13 
3 40 48 39 
3 40 39 43 
3 48 41 42 
3 48 42 39 
3 39 42 46 
3 39 46 44 
3 43 39 44 
3 43 44 45 
3 26 27 46 
3 2 46 27 
3 46 2 44 
3 45 44 2 
3 41 123 26 
3 26 42 41 
3 42 26 46 
3 49 123 41 
3 47 43 45 
3 45 11 47 
3 11 45 2 
3 40 43 47 
3 41 48 49 
3 40 49 48 
3 49 40 50 
3 47 50 40 
3 75 51 52 
3 75 93 92 
3 55 75 52 
3 75 55 93 
3 55 99 93 
3 57 55 52 
3 62 59 54 
3 62 54 53 
3 53 54 56 
3 53 56 61 
3 55 57 56 
3 85 56 57 
3 54 55 56 
3 99 55 59 
3 54 59 55 
3 58 99 59 
3 61 85 60 
3 53 61 60 
3 56 85 61 
3 63 62 53 
3 62 63 58 
3 63 53 60 
3 59 62 58 
3 125 127 66 
3 125 112 111 
3 64 125 66 
3 125 64 112 
3 64 65 112 
3 103 64 66 
3 77 67 68 
3 77 68 76 
3 67 74 73 
3 67 73 68 
3 68 73 70 
3 68 70 71 
3 76 68 71 
3 76 71 69 
3 104 105 70 
3 72 70 105 
3 70 72 71 
3 69 71 72 
3 74 95 104 
3 104 73 74 
3 73 104 70 
3 96 95 74 
3 75 76 69 
3 69 51 75 
3 51 69 72 
3 77 76 75 
3 74 67 96 
3 77 96 67 
3 96 77 92 
3 75 92 77 
3 78 87 79 
3 78 79 80 
3 80 79 81 
3 80 81 84 
3 79 82 83 
3 79 83 81 
3 87 86 82 
3 87 82 79 
3 72 83 51 
3 52 51 83 
3 83 82 52 
3 86 52 82 
3 84 72 105 
3 72 84 81 
3 81 83 72 
3 108 84 105 
3 85 86 87 
3 86 85 57 
3 57 52 86 
3 78 85 87 
3 84 108 80 
3 78 80 108 
3 108 60 78 
3 85 78 60 
3 100 101 89 
3 100 89 90 
3 101 97 88 
3 101 88 89 
3 89 88 91 
3 89 91 94 
3 90 89 94 
3 90 94 98 
3 96 92 91 
3 93 91 92 
3 91 93 94 
3 98 94 93 
3 97 95 96 
3 96 88 97 
3 88 96 91 
3 102 95 97 
3 58 90 98 
3 98 99 58 
3 99 98 93 
3 100 90 58 
3 97 101 102 
3 100 102 101 
3 102 100 63 
3 58 63 100 
3 64 103 106 
3 64 110 65 
3 104 64 106 
3 64 104 110 
3 104 95 110 
3 105 104 106 
3 106 108 105 
3 106 103 66 
3 107 108 106 
3 106 66 107 
3 107 66 127 
3 60 108 107 
3 110 95 102 
3 110 112 65 
3 109 110 102 
3 110 109 112 
3 109 111 112 
3 63 109 102 
3 114 13 113 
3 114 115 50 
3 16 114 113 
3 114 16 115 
3 16 120 115 
3 118 16 113 
3 116 119 21 
3 116 130 117 
3 113 119 116 
3 116 117 113 
3 113 117 118 
3 13 119 113 
3 135 123 49 
3 135 121 124 
3 115 135 49 
3 135 115 121 
3 115 120 121 
3 50 115 49 
3 60 126 131 
3 60 131 63 
3 134 131 126 
3 134 126 122 
3 21 123 134 
3 21 134 122 
3 17 130 129 
3 124 17 133 
3 129 133 17 
3 132 133 129 
3 132 129 128 
3 125 128 127 
3 111 132 125 
3 128 125 132 
3 107 126 60 
3 127 128 107 
3 126 107 128 
3 129 122 126 
3 129 126 128 
3 116 21 122 
3 130 116 129 
3 122 129 116 
3 109 63 131 
3 111 109 132 
3 131 132 109 
3 133 132 131 
3 133 131 134 
3 135 134 123 
3 124 133 135 
3 134 135 133 
