ply
format ascii 1.0
comment VCGLIB generated
element vertex 340
property float x
property float y
property float z
property float nx
property float ny
property float nz
element face 676
property list uchar int vertex_indices
end_header
27 -5 49 0 -0.785398 0 
29 -5 49 0 -0.785398 0 
29 -5 48 0 -1.5708 0 
29 2.5 49.5 1.3734 0 0 
29 0 49 1.5708 0 0 
29 -2.5 48.5 0.197396 0 0 
29 2.5 49 1.3734 0 0 
29 2.5 48.5 0.197396 0 0 
29 0 48.5 1.5708 0 0 
29 -2.5 49 1.5708 0 0 
29 -2.5 49.5 2.7468 0 0 
29 5 48 0.197396 0 0 
29 0 49.5 1.5708 0 0 
29 5 49 0 0.785398 0 
29 5 50 0 1.5708 0 
29 -5 20 0 0 -0.380506 
27 -5 20 0 0 -1.5708 
29 5 20 0 0 -1.5708 
27 5 20 0 0 -0.380506 
29 0 20 0 0 -1.19029 
28 0 50 0 0 1.3734 
27.5 -2.5 50 0 0 0.197396 
28.5 0 50 0 0 1.3734 
27 -5 50 0 0 1.3734 
28 -5 50 0 0 0.197396 
28.5 -2.5 50 0 0 1.3734 
28 -2.5 50 0 0 1.5708 
27 5 50 0 0 0.197396 
27.5 0 50 0 0 1.5708 
29 -5 50 0 0 0.197396 
27.5 2.5 50 0 0 1.3734 
28 2.5 50 0 0 1.5708 
28 5 50 0 0 1.3734 
28.5 2.5 50 0 0 0.394791 
29 0 50 0 0 0.197396 
11 -5 48 0 -0.785398 0 
10 -5 49 0 -0.785398 0 
12 -5 49 0 -0.785398 0 
12 -5 50 0 -1.5708 0 
11 -5 50 0 -0.785398 0 
10 -2.5 49.5 -0.197396 0 0 
10 0 49.5 -0.197396 0 0 
10 2.5 49.5 -1.5708 0 0 
10 2.5 49 -1.3734 0 0 
10 0 49 -1.3734 0 0 
10 2.5 48.5 -0.197396 0 0 
10 0 48.5 -1.5708 0 0 
10 -2.5 48.5 -0.394791 0 0 
10 -2.5 49 -1.5708 0 0 
10 0 50 -1.3734 0 0 
12 2.22045e-16 -24 1.5708 0 0 
12 -2.5 -36 0.353204 0 0 
12 -5 -48 1.17601 0 0 
12 0 -48 1.5708 0 0 
12 -5.55112e-17 -36 1.17601 0 0 
12 -5 -24 1.5708 0 0 
12 -5 -8 0.147889 0 0 
12 -2.5 -24 0.302885 0 0 
12 5 8 0.896055 0 0 
12 -5 8 0.896055 0 0 
12 5 0 0.896055 0 0 
12 -5 32 0.674741 0 0 
12 -5 48 0.896055 0 0 
12 5 40 0.896055 0 0 
12 2.5 -36 0.558599 0 0 
12 2.5 -24 0.147889 0 0 
12 5 -16 2.83871 0 0 
12 -5 0 1.3654 0 0 
11 2.5 -50 0 0 -1.5708 
11 0 -50 0 0 -1.5708 
10.5 2.5 -50 0 0 -1.5708 
11.5 -2.5 -50 0 0 -1.5708 
11.5 0 -50 0 0 -1.3734 
11 -2.5 -50 0 0 -0.197396 
10.5 -2.5 -50 0 0 -0.394791 
10.5 0 -50 0 0 -1.5708 
11 -5 -50 0 0 -1.3734 
11.5 2.5 -50 0 0 -1.3734 
-29 -5 -49 0 -0.785398 0 
-28 -5 -48 0 -1.5708 0 
-28 -5 -50 0 -0.785398 0 
-29 0 -48.5 -1.3734 0 0 
-29 2.5 -49 -0.197396 0 0 
-29 2.5 -49.5 -0.197396 0 0 
-29 0 -49 -1.5708 0 0 
-29 0 -49.5 -0.197396 0 0 
-29 2.5 -48.5 -0.394791 0 0 
-29 -5 -50 -1.3734 0 0 
-29 -2.5 -49.5 -2.7468 0 0 
-29 -2.5 -49 -1.5708 0 0 
-29 -2.5 -48.5 -0.197396 0 0 
-28 -5 -43.3333 0 -1.3597 0 
-28.5 -5 -43.3333 0 -1.5708 0 
-28 -5 -45.6667 0 -1.3597 0 
-29 -5 -41 0 -0.106735 0 
-29 -5 -48 0 -0.211093 0 
-28.5 -5 -45.6667 0 -0.106735 0 
-29 -5 -20 0 -0.2783 0 
-27 -5 -27 0 -1.2925 0 
-29 -5 -27 0 -1.2925 0 
-27.5 -5 -45.6667 0 -0.422187 0 
-27.5 -5 -43.3333 0 -1.78189 0 
-27 -5 -41 0 -0.193798 0 
-29 -5 -34 0 -1.46406 0 
-28 5 -43.3333 0 0.211093 0 
-28.5 5 -43.3333 0 1.3597 0 
-28 5 -45.6667 0 0.211093 0 
-27 5 -41 0 0.106735 0 
-27.5 5 -43.3333 0 2.9305 0 
-27.5 5 -45.6667 0 0.422187 0 
-27 5 -20 0 0.2783 0 
-27 5 -27 0 0.2783 0 
-29 5 -34 0 1.2925 0 
-28.5 5 -45.6667 0 2.9305 0 
-29 5 -48 0 1.3597 0 
-27 5 -34 0 1.46406 0 
-29 5 -41 -0.62025 0 0 
-29 0 -48 -0.277226 0 0 
-29 5 -27 -0.62025 0 0 
-27 -5 -20 0 0 1.19029 
-29 0 -20 0 0 1.19029 
-29 5 -20 0 0 1.19029 
-27 0 -20 0 0 0.380506 
-22.375 -5 -48.5 0 -0.212939 0 
-24.6875 -5 -48.5 0 -1.5708 0 
-24.6875 -5 -49 0 -1.35786 0 
-22.375 -5 -49.5 0 -1.5708 0 
5.375 -5 -49 0 -0.212939 0 
7.6875 -5 -49 0 -1.5708 0 
-24.6875 -5 -49.5 0 -2.92865 0 
-14.6667 -5 -48 0 -1.5708 0 
-14.6667 -5 -50 0 -0.313621 0 
-8.5 -5 -50 0 -1.5708 0 
-27 -5 -49 0 -0.212939 0 
-27 -5 -48 0 -0.212939 0 
-20.8333 -5 -48 0 -0.261804 0 
-22.375 -5 -49 0 -0.258018 0 
5.375 -5 -49.5 0 -2.82797 0 
7.6875 -5 -49.5 0 -2.79964 0 
-2.33333 -5 -48 0 -1.44179 0 
-8.5 -5 -48 0 -1.5708 0 
-2.33333 -5 -50 0 -1.5708 0 
5.375 -5 -48.5 0 -0.10769 0 
7.6875 -5 -48.5 0 -2.92865 0 
10 -5 -49 0 -1.35786 0 
-28 5 -50 0 1.5708 0 
-29 5 -49 0 0.785398 0 
-28 5 -48 0 0.785398 0 
-27.5 2.5 -50 0 0 -1.3734 
-28 2.5 -50 0 0 -0.197396 
-28 0 -50 0 0 -0.197396 
-27.5 0 -50 0 0 -0.197396 
-28 -2.5 -50 0 0 -1.3734 
-28.5 -2.5 -50 0 0 -2.7468 
-29 5 -50 0 0 -0.197396 
-29 0 -50 0 0 -0.197396 
-28.5 0 -50 0 0 -1.5708 
-28.5 2.5 -50 0 0 -0.197396 
-27.5 -2.5 -50 0 0 -0.394791 
-27 -5 -50 0 0 -1.3734 
-27 5 -50 0 0 -0.197396 
-27 -5 -34 0.610726 0 0 
12 -5 -49 0 -0.785398 0 
12 -2.5 -49 1.3734 0 0 
12 -9.02056e-17 -48.5 1.3734 0 0 
12 9.02056e-17 -49 1.3734 0 0 
12 2.5 -49 1.3734 0 0 
12 -1.76942e-16 -49.5 0.197396 0 0 
12 2.5 -49.5 1.5708 0 0 
12 -5 -50 1.3734 0 0 
12 -2.5 -49.5 2.7468 0 0 
12 0 -50 1.3734 0 0 
12 -2.5 -48.5 0.394791 0 0 
12 5 -50 0.197396 0 0 
12 2.5 -48.5 0.394791 0 0 
11 5 -50 0 1.5708 0 
12 5 -49 0 0.785398 0 
10 5 -49 0 0.785398 0 
11 5 -48 0 1.5708 0 
10 5 -50 0 1.5708 0 
-24.6875 5 -49 0 1.35786 0 
7.6875 5 -49.5 0 0.425877 0 
3.83333 5 -50 0 0.313621 0 
5.375 5 -49.5 0 0.10769 0 
7.6875 5 -49 0 1.5708 0 
7.6875 5 -48.5 0 1.35786 0 
5.375 5 -48.5 0 2.82797 0 
5.375 5 -49 0 0.258018 0 
-2.33333 5 -50 0 1.44179 0 
-22.375 5 -49 0 0.446416 0 
-22.375 5 -49.5 0 2.82797 0 
-24.6875 5 -49.5 0 1.35786 0 
-20.8333 5 -50 0 0.129009 0 
-14.6667 5 -48 0 1.25718 0 
-14.6667 5 -50 0 1.5708 0 
-20.8333 5 -48 0 0.261804 0 
-27 5 -48 0 0.105249 0 
-22.375 5 -48.5 0 0.10769 0 
-24.6875 5 -48.5 0 2.92865 0 
-27 5 -49 0 0.212939 0 
-20.8333 -5 -50 0 0 -0.681298 
-8.5 5 -50 0 0 -0.263964 
-27 0 -50 0 0 -0.263964 
3.83333 -5 -50 0 0 -0.681298 
10 -5 -50 0 0 -1.5708 
10 0 -50 0 0 -0.889498 
-8.5 5 -48 0 0 0.552584 
3.83333 5 -48 0 0 1.01821 
-2.33333 5 -48 0 0 1.5708 
3.83333 -5 -48 0 0 1.01821 
10 5 -48 0 0 0.552584 
22 -5 48 0 -1.5708 0 
17 -5 48 0 -1.19029 0 
12 5 49 0 0.785398 0 
10 5 49 0 0.785398 0 
11 5 48 0 0.785398 0 
11 0 50 0 0 0.197396 
11 2.5 50 0 0 0.197396 
10.5 0 50 0 0 1.5708 
10.5 -2.5 50 0 0 1.3734 
11 -2.5 50 0 0 1.5708 
11.5 -2.5 50 0 0 1.5708 
10 -5 50 0 0 0.197396 
10 5 50 0 0 1.3734 
11.5 0 50 0 0 1.5708 
10.5 2.5 50 0 0 1.3734 
11 5 50 0 0 0.197396 
11.5 2.5 50 0 0 0.394791 
12 5 50 0 0 0.197396 
11.5 -5 42.6667 0 -1.5708 0 
11 -5 45.3333 0 -0.185348 0 
10 -5 -48 0 -0.185348 0 
10 -5 -32 0 -1.5708 0 
10 -5 -24 0 -1.5708 0 
10.5 -5 -45.3333 0 -1.38545 0 
11 -5 -48 0 -1.38545 0 
10.5 -5 -42.6667 0 -1.75614 0 
11 -5 -42.6667 0 -1.21203 0 
11 -5 -45.3333 0 -1.5708 0 
12 -5 -16 0 -0.244978 0 
12 -5 16 0 -0.244978 0 
12 -5 24 0 -0.244978 0 
10 -5 0 0 -1.5708 0 
11 -5 42.6667 0 -1.21203 0 
10.5 -5 42.6667 0 -1.75614 0 
10 -5 48 0 -1.38545 0 
12 -5 40 0 -1.5708 0 
12 -5 -32 0 -1.47732 0 
12 -5 -40 0 -0.185348 0 
11.5 -5 -45.3333 0 -2.95624 0 
11.5 -5 -42.6667 0 -1.75614 0 
11.5 -5 45.3333 0 -0.370696 0 
10.5 -5 45.3333 0 -1.38545 0 
10 -5 40 0 -1.21203 0 
11 5 42.6667 0 1.5708 0 
12 5 -48 0 0.185348 0 
11.5 5 -42.6667 0 2.95624 0 
12 5 -24 0 1.5708 0 
10 5 -24 0 1.32582 0 
10 5 -16 0 1.5708 0 
12 5 -32 0 1.5708 0 
12 5 -8 0 1.32582 0 
12 5 -40 0 0.173423 0 
10 5 -8 0 0.244978 0 
10 5 0 0 1.5708 0 
11.5 5 -45.3333 0 0.370696 0 
12 5 16 0 0.244978 0 
10 5 8 0 0.244978 0 
12 5 32 0 0.244978 0 
12 5 24 0 1.32582 0 
10 5 24 0 1.5708 0 
11.5 5 42.6667 0 2.86277 0 
12 5 48 0 1.38545 0 
10 5 40 0 1.21203 0 
10.5 5 -42.6667 0 2.95624 0 
10 5 -40 0 0.0918714 0 
10 5 -32 0 0.0934764 0 
11 5 -42.6667 0 1.21203 0 
10.5 5 45.3333 0 2.95624 0 
11 5 45.3333 0 1.5708 0 
11.5 5 45.3333 0 1.38545 0 
10.5 5 42.6667 0 2.86277 0 
10 5 48 0 0.0934771 0 
10.5 5 -45.3333 0 1.38545 0 
11 5 -45.3333 0 1.5708 0 
10 0 36 -1.3654 0 0 
10 2.5 24 -0.205395 0 0 
10 0 24 -1.5708 0 0 
10 -5 -16 -1.5708 0 0 
10 -5 -8 -1.5708 0 0 
10 5 16 -0.302885 0 0 
10 5 32 -0.302885 0 0 
10 0 48 -1.3654 0 0 
10 2.5 36 -0.558599 0 0 
10 -5 -40 -1.5708 0 0 
10 -2.5 24 -1.5708 0 0 
10 -5 32 -2.58299 0 0 
10 -5 24 -1.5708 0 0 
10 -2.5 36 -2.02439 0 0 
10 -5 16 -2.83871 0 0 
10 -5 8 -0.154997 0 0 
28 -5 43.3333 0 -1.3597 0 
28.5 -5 43.3333 0 -1.5708 0 
28 -5 45.6667 0 -0.211093 0 
29 -5 27 0 -1.2925 0 
27 -5 34 0 -1.2925 0 
27 -5 48 0 -0.106735 0 
27.5 -5 43.3333 0 -2.82376 0 
27.5 -5 45.6667 0 -0.422187 0 
28 -5 48 0 -0.211093 0 
28.5 -5 45.6667 0 -2.82376 0 
29 -5 34 0.343024 0 0 
29 -5 41 2.52134 0 0 
29 5 34 1.22777 0 0 
29 5 41 2.52134 0 0 
29 0 48 0.277226 0 0 
28 5 43.3333 0 0.211093 0 
28.5 5 43.3333 0 1.78189 0 
29 5 27 0 0.2783 0 
27.5 5 43.3333 0 1.78189 0 
28.5 5 45.6667 0 1.3597 0 
28 5 48 0 0.211093 0 
27.5 5 45.6667 0 1.3597 0 
28 5 45.6667 0 1.5708 0 
27 5 41 0 0.104357 0 
27 -5 41 -1.5708 0 0 
27 5 48 -0.610726 0 0 
27 5 27 -2.52134 0 0 
27 0 20 -0.277226 0 0 
27 -5 27 -0.62025 0 0 
27 5 34 -1.22777 0 0 
27 5 49 0 1.3734 0 
22 5 50 0 0.197396 0 
17 5 48 0 0 -1.5708 
22 5 48 0 0 -1.5708 
17 5 50 0 0 0.785398 
12 0 50 0 0 0.321751 
17 -5 50 0 0 2.35619 
27 0 50 0 0 0.785398 
22 -5 50 0 0 1.89255 
3 0 306 309 
3 0 24 23 
3 1 0 309 
3 0 1 24 
3 1 29 24 
3 2 1 309 
3 3 12 4 
3 3 4 6 
3 12 10 9 
3 12 9 4 
3 4 9 5 
3 4 5 8 
3 6 4 8 
3 6 8 7 
3 1 2 5 
3 315 5 2 
3 5 315 8 
3 7 8 315 
3 10 29 1 
3 1 9 10 
3 9 1 5 
3 34 29 10 
3 13 6 7 
3 7 11 13 
3 11 7 315 
3 3 6 13 
3 10 12 34 
3 3 34 12 
3 34 3 14 
3 13 14 3 
3 13 11 321 
3 13 32 14 
3 331 13 321 
3 13 331 32 
3 331 27 32 
3 326 331 321 
3 328 19 15 
3 328 15 16 
3 18 17 19 
3 18 19 328 
3 33 31 20 
3 33 20 22 
3 31 30 28 
3 31 28 20 
3 20 28 21 
3 20 21 26 
3 22 20 26 
3 22 26 25 
3 338 23 21 
3 24 21 23 
3 21 24 26 
3 25 26 24 
3 30 27 338 
3 338 28 30 
3 28 338 21 
3 32 27 30 
3 34 22 25 
3 25 29 34 
3 29 25 24 
3 33 22 34 
3 30 31 32 
3 33 32 31 
3 32 33 14 
3 34 14 33 
3 36 245 35 
3 36 39 222 
3 37 36 35 
3 36 37 39 
3 37 38 39 
3 62 37 35 
3 40 41 44 
3 40 44 48 
3 41 42 43 
3 41 43 44 
3 44 43 45 
3 44 45 46 
3 48 44 46 
3 48 46 47 
3 214 282 45 
3 292 45 282 
3 45 292 46 
3 47 46 292 
3 42 223 214 
3 214 43 42 
3 43 214 45 
3 49 223 42 
3 36 48 47 
3 47 245 36 
3 245 47 292 
3 40 48 36 
3 42 41 49 
3 40 49 41 
3 49 40 222 
3 36 222 40 
3 50 57 51 
3 50 51 54 
3 65 50 54 
3 65 54 64 
3 51 248 52 
3 57 55 247 
3 247 248 51 
3 52 53 54 
3 52 54 51 
3 56 239 57 
3 57 239 55 
3 56 57 50 
3 51 57 247 
3 56 50 67 
3 240 59 58 
3 240 58 266 
3 59 67 60 
3 59 60 58 
3 61 241 269 
3 61 269 268 
3 62 246 63 
3 62 63 272 
3 246 61 268 
3 246 268 63 
3 241 240 266 
3 241 266 269 
3 64 54 53 
3 261 50 65 
3 65 64 260 
3 65 260 257 
3 64 255 262 
3 64 262 260 
3 64 53 255 
3 66 65 257 
3 65 66 261 
3 50 261 60 
3 67 50 60 
3 77 72 69 
3 77 69 68 
3 68 69 75 
3 68 75 70 
3 69 73 74 
3 69 74 75 
3 72 71 73 
3 72 73 69 
3 205 74 204 
3 76 204 74 
3 74 73 76 
3 71 76 73 
3 70 205 179 
3 205 70 75 
3 75 74 205 
3 175 70 179 
3 171 71 72 
3 71 171 169 
3 169 76 71 
3 77 171 72 
3 70 175 68 
3 77 68 175 
3 175 173 77 
3 171 77 173 
3 78 87 80 
3 78 79 95 
3 133 78 80 
3 78 133 79 
3 133 134 79 
3 159 133 80 
3 90 81 84 
3 90 84 89 
3 81 86 82 
3 81 82 84 
3 84 82 83 
3 84 83 85 
3 89 84 85 
3 89 85 88 
3 146 154 83 
3 155 83 154 
3 83 155 85 
3 88 85 155 
3 86 114 146 
3 146 82 86 
3 82 146 83 
3 117 114 86 
3 78 89 88 
3 88 87 78 
3 87 88 155 
3 90 89 78 
3 86 81 117 
3 90 117 81 
3 117 90 95 
3 78 95 90 
3 91 92 96 
3 91 96 93 
3 101 91 93 
3 101 93 100 
3 94 95 96 
3 94 96 92 
3 79 96 95 
3 94 92 91 
3 94 91 103 
3 97 99 98 
3 97 98 119 
3 99 103 161 
3 99 161 98 
3 96 79 93 
3 134 102 101 
3 134 101 100 
3 79 100 93 
3 100 79 134 
3 91 102 161 
3 91 101 102 
3 161 103 91 
3 104 108 109 
3 104 109 106 
3 105 104 106 
3 105 106 113 
3 107 196 109 
3 107 109 108 
3 147 109 196 
3 107 108 104 
3 107 104 115 
3 110 111 118 
3 110 118 121 
3 111 115 112 
3 111 112 118 
3 109 147 106 
3 114 116 105 
3 114 105 113 
3 147 113 106 
3 113 147 114 
3 104 116 112 
3 104 105 116 
3 112 115 104 
3 116 114 117 
3 112 116 117 
3 112 120 118 
3 118 120 121 
3 117 103 112 
3 94 103 117 
3 112 103 120 
3 97 120 99 
3 103 99 120 
3 95 94 117 
3 120 97 119 
3 120 119 122 
3 121 120 122 
3 121 122 110 
3 123 124 125 
3 123 125 136 
3 136 125 129 
3 136 129 126 
3 143 142 127 
3 143 127 128 
3 128 127 137 
3 128 137 138 
3 133 159 129 
3 159 200 126 
3 159 126 129 
3 129 125 133 
3 136 126 200 
3 136 200 131 
3 140 130 131 
3 140 131 132 
3 134 133 124 
3 125 124 133 
3 135 134 124 
3 135 124 123 
3 135 123 136 
3 136 130 135 
3 130 136 131 
3 203 127 141 
3 138 137 203 
3 137 127 203 
3 144 128 138 
3 203 204 138 
3 144 138 204 
3 139 141 127 
3 139 140 132 
3 139 132 141 
3 209 139 127 
3 209 127 142 
3 231 209 142 
3 231 142 143 
3 144 231 143 
3 128 144 143 
3 199 160 145 
3 199 147 196 
3 146 199 145 
3 199 146 147 
3 146 114 147 
3 154 146 145 
3 148 151 150 
3 148 150 149 
3 149 150 156 
3 149 156 157 
3 150 152 153 
3 150 153 156 
3 151 158 152 
3 151 152 150 
3 153 87 155 
3 87 153 80 
3 156 153 155 
3 154 157 155 
3 156 155 157 
3 154 145 157 
3 157 145 149 
3 80 153 152 
3 158 80 152 
3 159 158 202 
3 151 202 158 
3 158 159 80 
3 160 148 149 
3 160 149 145 
3 148 160 202 
3 148 202 151 
3 102 134 196 
3 102 196 107 
3 122 98 161 
3 122 119 98 
3 161 102 107 
3 161 107 115 
3 161 115 122 
3 110 122 111 
3 115 111 122 
3 144 204 76 
3 144 235 231 
3 162 144 76 
3 144 162 235 
3 162 52 235 
3 169 162 76 
3 174 164 165 
3 174 165 166 
3 164 172 163 
3 164 163 165 
3 165 163 170 
3 165 170 167 
3 166 165 167 
3 166 167 168 
3 162 169 170 
3 171 170 169 
3 170 171 167 
3 168 167 171 
3 172 52 162 
3 162 163 172 
3 163 162 170 
3 53 52 172 
3 176 166 168 
3 168 173 176 
3 173 168 171 
3 174 166 176 
3 172 164 53 
3 174 53 164 
3 53 174 255 
3 176 255 174 
3 176 173 175 
3 176 178 255 
3 177 176 175 
3 176 177 178 
3 177 210 178 
3 179 177 175 
3 186 185 184 
3 186 184 187 
3 187 184 181 
3 187 181 183 
3 198 197 189 
3 198 189 180 
3 180 189 190 
3 180 190 191 
3 177 179 181 
3 179 182 183 
3 179 183 181 
3 181 184 177 
3 187 183 182 
3 187 182 188 
3 188 201 206 
3 188 206 208 
3 210 177 185 
3 184 185 177 
3 207 210 185 
3 207 185 186 
3 207 186 187 
3 187 208 207 
3 208 187 188 
3 192 189 194 
3 191 190 192 
3 190 189 192 
3 199 180 191 
3 192 160 191 
3 199 191 160 
3 193 194 189 
3 193 206 201 
3 193 201 194 
3 195 193 189 
3 195 189 197 
3 196 195 197 
3 196 197 198 
3 199 196 198 
3 180 199 198 
3 202 200 159 
3 202 132 131 
3 202 131 200 
3 192 202 160 
3 202 192 194 
3 201 202 194 
3 205 141 132 
3 205 132 202 
3 205 203 141 
3 203 205 204 
3 202 201 205 
3 205 201 188 
3 205 182 179 
3 182 205 188 
3 134 135 195 
3 134 195 196 
3 135 130 193 
3 135 193 195 
3 130 140 206 
3 130 206 193 
3 139 209 207 
3 139 207 208 
3 209 231 210 
3 209 210 207 
3 208 206 140 
3 208 140 139 
3 37 62 212 
3 38 37 337 
3 212 337 37 
3 212 211 339 
3 212 339 337 
3 0 211 306 
3 23 339 0 
3 211 0 339 
3 213 272 215 
3 213 226 228 
3 226 213 215 
3 215 214 226 
3 214 223 226 
3 282 214 215 
3 227 217 216 
3 227 216 224 
3 217 225 218 
3 217 218 216 
3 216 218 219 
3 216 219 220 
3 224 216 220 
3 224 220 221 
3 49 222 219 
3 39 219 222 
3 219 39 220 
3 221 220 39 
3 225 223 49 
3 49 218 225 
3 218 49 219 
3 226 223 225 
3 336 224 221 
3 221 38 336 
3 38 221 39 
3 227 224 336 
3 225 217 226 
3 227 226 217 
3 226 227 228 
3 336 228 227 
3 237 236 234 
3 237 234 238 
3 250 237 238 
3 250 238 249 
3 251 230 243 
3 251 243 229 
3 230 252 244 
3 230 244 243 
3 294 231 234 
3 294 234 236 
3 233 232 247 
3 233 247 55 
3 288 233 55 
3 288 55 239 
3 232 294 237 
3 238 234 235 
3 231 235 234 
3 294 236 237 
3 238 235 249 
3 289 288 239 
3 289 239 56 
3 242 289 56 
3 242 56 67 
3 297 299 240 
3 297 240 241 
3 296 297 241 
3 296 241 61 
3 300 242 67 
3 300 67 59 
3 243 244 253 
3 252 245 244 
3 253 244 245 
3 35 245 252 
3 253 296 61 
3 253 61 246 
3 299 300 59 
3 299 59 240 
3 247 232 237 
3 52 248 250 
3 52 250 249 
3 235 52 249 
3 237 248 247 
3 248 237 250 
3 246 229 243 
3 35 230 251 
3 62 35 251 
3 252 230 35 
3 251 229 62 
3 253 246 243 
3 229 246 62 
3 277 256 265 
3 277 265 284 
3 274 277 284 
3 274 284 283 
3 278 279 254 
3 278 254 281 
3 279 280 271 
3 279 271 254 
3 262 255 265 
3 262 265 256 
3 257 260 276 
3 257 276 258 
3 66 257 258 
3 66 258 259 
3 276 260 262 
3 265 178 284 
3 261 66 259 
3 261 259 263 
3 277 262 256 
3 60 261 263 
3 60 263 264 
3 178 265 255 
3 266 58 267 
3 266 267 290 
3 268 269 270 
3 268 270 291 
3 63 268 291 
3 63 291 273 
3 269 266 290 
3 269 290 270 
3 272 63 271 
3 272 271 280 
3 254 271 63 
3 280 215 272 
3 273 254 63 
3 58 60 264 
3 58 264 267 
3 262 277 276 
3 283 178 210 
3 274 283 275 
3 210 275 283 
3 277 275 276 
3 274 275 277 
3 282 278 281 
3 215 279 278 
3 282 215 278 
3 280 279 215 
3 254 273 281 
3 281 273 282 
3 178 283 284 
3 298 285 287 
3 298 287 295 
3 285 293 286 
3 285 286 287 
3 276 275 294 
3 276 294 232 
3 259 258 233 
3 259 233 288 
3 258 276 232 
3 258 232 233 
3 264 263 289 
3 264 289 242 
3 287 267 264 
3 287 264 242 
3 263 259 288 
3 263 288 289 
3 286 270 290 
3 293 273 291 
3 291 270 286 
3 267 286 290 
3 292 282 293 
3 293 282 273 
3 286 293 291 
3 286 267 287 
3 275 210 231 
3 275 231 294 
3 287 300 295 
3 242 300 287 
3 245 292 285 
3 245 285 298 
3 298 295 297 
3 298 297 296 
3 293 285 292 
3 295 299 297 
3 298 296 253 
3 298 253 245 
3 299 295 300 
3 310 303 301 
3 310 301 302 
3 303 308 307 
3 303 307 301 
3 305 329 304 
3 305 304 311 
3 301 325 305 
3 301 305 311 
3 306 325 307 
3 306 307 308 
3 309 306 308 
3 301 307 325 
3 329 16 15 
3 329 15 304 
3 301 312 302 
3 312 301 311 
3 308 303 309 
3 310 309 303 
3 302 312 310 
3 2 310 312 
3 309 310 2 
3 304 15 19 
3 311 304 19 
3 311 315 312 
3 312 315 2 
3 19 313 311 
3 318 313 19 
3 311 313 315 
3 11 315 314 
3 313 314 315 
3 17 318 19 
3 322 323 316 
3 322 316 319 
3 323 320 317 
3 323 317 316 
3 313 318 327 
3 313 327 330 
3 316 314 313 
3 316 313 330 
3 11 314 317 
3 11 317 320 
3 321 11 320 
3 316 317 314 
3 318 17 18 
3 318 18 327 
3 316 324 319 
3 324 316 330 
3 320 323 321 
3 322 321 323 
3 319 324 322 
3 326 322 324 
3 321 322 326 
3 328 327 18 
3 324 330 305 
3 324 305 325 
3 326 324 325 
3 326 325 306 
3 330 327 328 
3 329 328 16 
3 305 328 329 
3 305 330 328 
3 331 326 334 
3 27 331 332 
3 334 332 331 
3 332 334 333 
3 332 333 335 
3 213 333 272 
3 228 335 213 
3 333 213 335 
3 212 62 272 
3 212 272 333 
3 212 333 334 
3 212 334 211 
3 211 334 326 
3 211 326 306 
3 336 38 337 
3 228 336 335 
3 336 332 335 
3 339 336 337 
3 338 339 23 
3 27 332 338 
3 338 332 336 
3 339 338 336 
